  0
SECTION
  2
HEADER
  9
$ACADVER
  1
AC1015
  9
$ACADMAINTVER
 70
     6
  9
$DWGCODEPAGE
  3
ANSI_1252
  9
$INSBASE
 10
0.0
 20
0.0
 30
0.0
  9
$EXTMIN
 10
-100.0
 20
-120.0
 30
0.0
  9
$EXTMAX
 10
100.0
 20
60.0
 30
0.0
  9
$LIMMIN
 10
0.0
 20
0.0
  9
$LIMMAX
 10
420.0
 20
297.0
  9
$ORTHOMODE
 70
     0
  9
$REGENMODE
 70
     1
  9
$FILLMODE
 70
     1
  9
$QTEXTMODE
 70
     0
  9
$MIRRTEXT
 70
     1
  9
$LTSCALE
 40
1.0
  9
$ATTMODE
 70
     1
  9
$TEXTSIZE
 40
3.5
  9
$TRACEWID
 40
1.0
  9
$TEXTSTYLE
  7
Standard
  9
$CLAYER
  8
0
  9
$CELTYPE
  6
ByLayer
  9
$CECOLOR
 62
   256
  9
$CELTSCALE
 40
1.0
  9
$DISPSILH
 70
     0
  9
$DIMSCALE
 40
1.0
  9
$DIMASZ
 40
3.302
  9
$DIMEXO
 40
1.0
  9
$DIMDLI
 40
3.75
  9
$DIMRND
 40
0.0
  9
$DIMDLE
 40
0.0
  9
$DIMEXE
 40
1.0
  9
$DIMTP
 40
0.0
  9
$DIMTM
 40
0.0
  9
$DIMTXT
 40
3.5
  9
$DIMCEN
 40
2.5
  9
$DIMTSZ
 40
0.0
  9
$DIMTOL
 70
     0
  9
$DIMLIM
 70
     0
  9
$DIMTIH
 70
     1
  9
$DIMTOH
 70
     1
  9
$DIMSE1
 70
     0
  9
$DIMSE2
 70
     0
  9
$DIMTAD
 70
     1
  9
$DIMZIN
 70
     1
  9
$DIMBLK
  1

  9
$DIMASO
 70
     1
  9
$DIMSHO
 70
     1
  9
$DIMPOST
  1

  9
$DIMAPOST
  1

  9
$DIMALT
 70
     0
  9
$DIMALTD
 70
     3
  9
$DIMALTF
 40
0.0393700787
  9
$DIMLFAC
 40
1.0
  9
$DIMTOFL
 70
     1
  9
$DIMTVP
 40
0.0
  9
$DIMTIX
 70
     0
  9
$DIMSOXD
 70
     0
  9
$DIMSAH
 70
     0
  9
$DIMBLK1
  1

  9
$DIMBLK2
  1

  9
$DIMSTYLE
  2
ISO-25
  9
$DIMCLRD
 70
     0
  9
$DIMCLRE
 70
     0
  9
$DIMCLRT
 70
     0
  9
$DIMTFAC
 40
1.0
  9
$DIMGAP
 40
1.524
  9
$DIMJUST
 70
     0
  9
$DIMSD1
 70
     0
  9
$DIMSD2
 70
     0
  9
$DIMTOLJ
 70
     0
  9
$DIMTZIN
 70
     1
  9
$DIMALTZ
 70
     0
  9
$DIMALTTZ
 70
     0
  9
$DIMUPT
 70
     0
  9
$DIMDEC
 70
     2
  9
$DIMTDEC
 70
     2
  9
$DIMALTU
 70
     2
  9
$DIMALTTD
 70
     3
  9
$DIMTXSTY
  7
Standard
  9
$DIMAUNIT
 70
     0
  9
$DIMADEC
 70
     2
  9
$DIMALTRND
 40
0.0
  9
$DIMAZIN
 70
     0
  9
$DIMDSEP
 70
    44
  9
$DIMATFIT
 70
     3
  9
$DIMFRAC
 70
     0
  9
$DIMLDRBLK
  1

  9
$DIMLUNIT
 70
     2
  9
$DIMLWD
 70
    -2
  9
$DIMLWE
 70
    -2
  9
$DIMTMOVE
 70
     0
  9
$LUNITS
 70
     2
  9
$LUPREC
 70
     2
  9
$SKETCHINC
 40
1.0
  9
$FILLETRAD
 40
10.0
  9
$AUNITS
 70
     0
  9
$AUPREC
 70
     2
  9
$MENU
  1
.
  9
$ELEVATION
 40
0.0
  9
$PELEVATION
 40
0.0
  9
$THICKNESS
 40
0.0
  9
$LIMCHECK
 70
     0
  9
$CHAMFERA
 40
0.0
  9
$CHAMFERB
 40
0.0
  9
$CHAMFERC
 40
0.0
  9
$CHAMFERD
 40
0.0
  9
$SKPOLY
 70
     0
  9
$TDCREATE
 40
2460033.689731678
  9
$TDUCREATE
 40
2460033.398065011
  9
$TDUPDATE
 40
2460033.690072002
  9
$TDUUPDATE
 40
2460033.398405336
  9
$TDINDWG
 40
0.0000000116
  9
$TDUSRTIMER
 40
0.0000000116
  9
$USRTIMER
 70
     1
  9
$ANGBASE
 50
0.0
  9
$ANGDIR
 70
     0
  9
$PDMODE
 70
     0
  9
$PDSIZE
 40
-1.0
  9
$PLINEWID
 40
0.0
  9
$SPLFRAME
 70
     0
  9
$SPLINETYPE
 70
     6
  9
$SPLINESEGS
 70
     8
  9
$HANDSEED
  5
FA
  9
$SURFTAB1
 70
     6
  9
$SURFTAB2
 70
     6
  9
$SURFTYPE
 70
     6
  9
$SURFU
 70
     6
  9
$SURFV
 70
     6
  9
$UCSBASE
  2

  9
$UCSNAME
  2

  9
$UCSORG
 10
0.0
 20
0.0
 30
0.0
  9
$UCSXDIR
 10
1.0
 20
0.0
 30
0.0
  9
$UCSYDIR
 10
0.0
 20
1.0
 30
0.0
  9
$UCSORTHOREF
  2

  9
$UCSORTHOVIEW
 70
     0
  9
$UCSORGTOP
 10
0.0
 20
0.0
 30
0.0
  9
$UCSORGBOTTOM
 10
0.0
 20
0.0
 30
0.0
  9
$UCSORGLEFT
 10
0.0
 20
0.0
 30
0.0
  9
$UCSORGRIGHT
 10
0.0
 20
0.0
 30
0.0
  9
$UCSORGFRONT
 10
0.0
 20
0.0
 30
0.0
  9
$UCSORGBACK
 10
0.0
 20
0.0
 30
0.0
  9
$PUCSBASE
  2

  9
$PUCSNAME
  2

  9
$PUCSORG
 10
0.0
 20
0.0
 30
0.0
  9
$PUCSXDIR
 10
1.0
 20
0.0
 30
0.0
  9
$PUCSYDIR
 10
0.0
 20
1.0
 30
0.0
  9
$PUCSORTHOREF
  2

  9
$PUCSORTHOVIEW
 70
     0
  9
$PUCSORGTOP
 10
0.0
 20
0.0
 30
0.0
  9
$PUCSORGBOTTOM
 10
0.0
 20
0.0
 30
0.0
  9
$PUCSORGLEFT
 10
0.0
 20
0.0
 30
0.0
  9
$PUCSORGRIGHT
 10
0.0
 20
0.0
 30
0.0
  9
$PUCSORGFRONT
 10
0.0
 20
0.0
 30
0.0
  9
$PUCSORGBACK
 10
0.0
 20
0.0
 30
0.0
  9
$USERI1
 70
     0
  9
$USERI2
 70
     0
  9
$USERI3
 70
     0
  9
$USERI4
 70
     0
  9
$USERI5
 70
     0
  9
$USERR1
 40
0.0
  9
$USERR2
 40
0.0
  9
$USERR3
 40
0.0
  9
$USERR4
 40
0.0
  9
$USERR5
 40
0.0
  9
$WORLDVIEW
 70
     1
  9
$SHADEDGE
 70
     3
  9
$SHADEDIF
 70
    70
  9
$TILEMODE
 70
     1
  9
$MAXACTVP
 70
    64
  9
$PINSBASE
 10
0.0
 20
0.0
 30
0.0
  9
$PLIMCHECK
 70
     0
  9
$PEXTMIN
 10
1.0000000000E+20
 20
1.0000000000E+20
 30
1.0000000000E+20
  9
$PEXTMAX
 10
-1.0000000000E+20
 20
-1.0000000000E+20
 30
-1.0000000000E+20
  9
$PLIMMIN
 10
0.0
 20
0.0
  9
$PLIMMAX
 10
420.0
 20
297.0
  9
$UNITMODE
 70
     0
  9
$VISRETAIN
 70
     1
  9
$PLINEGEN
 70
     0
  9
$PSLTSCALE
 70
     1
  9
$TREEDEPTH
 70
  3020
  9
$CMLSTYLE
  2
Standard
  9
$CMLJUST
 70
     0
  9
$CMLSCALE
 40
20.0
  9
$PROXYGRAPHICS
 70
     1
  9
$MEASUREMENT
 70
     1
  9
$CELWEIGHT
370
    -1
  9
$ENDCAPS
280
     0
  9
$JOINSTYLE
280
     0
  9
$LWDISPLAY
290
     1
  9
$INSUNITS
 70
     4
  9
$HYPERLINKBASE
  1

  9
$STYLESHEET
  1

  9
$XEDIT
290
     1
  9
$CEPSNTYPE
380
     0
  9
$PSTYLEMODE
290
     1
  9
$FINGERPRINTGUID
  2
{a878bfcd-4169-48d1-b85b-e937ca97964c}
  9
$VERSIONGUID
  2
{FAEB1C32-E019-11D5-929B-00C0DF256EC4}
  9
$EXTNAMES
290
     1
  9
$PSVPSCALE
 40
0.0
  9
$OLESTARTUP
290
     0
  0
ENDSEC
  0
SECTION
  2
CLASSES
  0
CLASS
  1
ACDBDICTIONARYWDFLT
  2
AcDbDictionaryWithDefault
  3
ObjectDBX Classes
 90
        0
280
     0
281
     0
  0
CLASS
  1
VISUALSTYLE
  2
AcDbVisualStyle
  3
ObjectDBX Classes
 90
     4095
280
     0
281
     0
  0
CLASS
  1
MATERIAL
  2
AcDbMaterial
  3
ObjectDBX Classes
 90
     1153
280
     0
281
     0
  0
CLASS
  1
SCALE
  2
AcDbScale
  3
ObjectDBX Classes
 90
     1153
280
     0
281
     0
  0
CLASS
  1
TABLESTYLE
  2
AcDbTableStyle
  3
ObjectDBX Classes
 90
     4095
280
     0
281
     0
  0
CLASS
  1
MLEADERSTYLE
  2
AcDbMLeaderStyle
  3
ACDB_MLEADERSTYLE_CLASS
 90
     4095
280
     0
281
     0
  0
CLASS
  1
SUN
  2
AcDbSun
  3
SCENEOE
 90
     1153
280
     0
281
     0
  0
CLASS
  1
ACDBPLACEHOLDER
  2
AcDbPlaceHolder
  3
ObjectDBX Classes
 90
        0
280
     0
281
     0
  0
CLASS
  1
LAYOUT
  2
AcDbLayout
  3
ObjectDBX Classes
 90
        0
280
     0
281
     0
  0
ENDSEC
  0
SECTION
  2
TABLES
  0
TABLE
  2
VPORT
  5
8
330
0
100
AcDbSymbolTable
 70
     1
  0
VPORT
  5
29
330
8
100
AcDbSymbolTableRecord
100
AcDbViewportTableRecord
  2
*Active
 70
     0
 10
0.0
 20
0.0
 11
1.0
 21
1.0
 12
0.0
 22
-30.0
 13
0.0
 23
0.0
 14
10.0
 24
10.0
 15
10.0
 25
10.0
 16
0.0
 26
0.0
 36
1.0
 17
0.0
 27
0.0
 37
0.0
 40
183.6
 41
1.1111111111
 42
50.0
 43
0.0
 44
0.0
 50
0.0
 51
0.0
 71
     0
 72
   100
 73
     1
 74
     3
 75
     0
 76
     0
 77
     0
 78
     0
281
     0
 65
     1
110
0.0
120
0.0
130
0.0
111
1.0
121
0.0
131
0.0
112
0.0
122
1.0
132
0.0
 79
     0
146
0.0
  0
ENDTAB
  0
TABLE
  2
LTYPE
  5
5
330
0
100
AcDbSymbolTable
 70
     6
  0
LTYPE
  5
14
330
5
100
AcDbSymbolTableRecord
100
AcDbLinetypeTableRecord
  2
ByBlock
 70
     0
  3

 72
    65
 73
     0
 40
0.0
  0
LTYPE
  5
15
330
5
100
AcDbSymbolTableRecord
100
AcDbLinetypeTableRecord
  2
ByLayer
 70
     0
  3

 72
    65
 73
     0
 40
0.0
  0
LTYPE
  5
16
330
5
100
AcDbSymbolTableRecord
100
AcDbLinetypeTableRecord
  2
Continuous
 70
     0
  3
Solid line
 72
    65
 73
     0
 40
0.0
  0
LTYPE
  5
6E
330
5
100
AcDbSymbolTableRecord
100
AcDbLinetypeTableRecord
  2
HIDDEN
 70
     0
  3
Hidden __ __ __ __ __ __ __ __ __ __ __ __ __ __
 72
    65
 73
     2
 40
1.905
 49
1.27
 74
     0
 49
-0.635
 74
     0
  0
LTYPE
  5
6F
330
5
100
AcDbSymbolTableRecord
100
AcDbLinetypeTableRecord
  2
PHANTOM
 70
     0
  3
Phantom ______  __  __  ______  __  __  ______
 72
    65
 73
     6
 40
12.7
 49
6.35
 74
     0
 49
-1.27
 74
     0
 49
1.27
 74
     0
 49
-1.27
 74
     0
 49
1.27
 74
     0
 49
-1.27
 74
     0
  0
LTYPE
  5
70
330
5
100
AcDbSymbolTableRecord
100
AcDbLinetypeTableRecord
  2
CENTER
 70
     0
  3
Center ____ _ ____ _ ____ _ ____ _ ____ _ ____
 72
    65
 73
     4
 40
10.16
 49
6.35
 74
     0
 49
-1.27
 74
     0
 49
1.27
 74
     0
 49
-1.27
 74
     0
  0
LTYPE
  5
71
330
5
100
AcDbSymbolTableRecord
100
AcDbLinetypeTableRecord
  2
CENTERX2
 70
     0
  3
Center (2x) ________  __  ________  __  _____
 72
    65
 73
     4
 40
20.32
 49
12.7
 74
     0
 49
-2.54
 74
     0
 49
2.54
 74
     0
 49
-2.54
 74
     0
  0
LTYPE
  5
72
330
5
100
AcDbSymbolTableRecord
100
AcDbLinetypeTableRecord
  2
DOT2
 70
     0
  3
Dot (.5x) ........................................
 72
    65
 73
     2
 40
0.635
 49
0.0
 74
     0
 49
-0.635
 74
     0
  0
ENDTAB
  0
TABLE
  2
LAYER
  5
2
330
0
100
AcDbSymbolTable
 70
     1
  0
LAYER
  5
10
330
2
100
AcDbSymbolTableRecord
100
AcDbLayerTableRecord
  2
0
 70
     0
 62
     7
  6
Continuous
370
    -3
390
F
  0
ENDTAB
  0
TABLE
  2
STYLE
  5
3
330
0
100
AcDbSymbolTable
 70
     1
  0
STYLE
  5
11
330
3
100
AcDbSymbolTableRecord
100
AcDbTextStyleTableRecord
  2
Standard
 70
     0
 40
0.0
 41
1.0
 50
0.0
 71
     0
 42
3.5
  3
txt
  4

  0
ENDTAB
  0
TABLE
  2
VIEW
  5
6
330
0
100
AcDbSymbolTable
 70
     0
  0
ENDTAB
  0
TABLE
  2
UCS
  5
7
330
0
100
AcDbSymbolTable
 70
     0
  0
ENDTAB
  0
TABLE
  2
APPID
  5
9
330
0
100
AcDbSymbolTable
 70
     1
  0
APPID
  5
12
330
9
100
AcDbSymbolTableRecord
100
AcDbRegAppTableRecord
  2
ACAD
 70
     0
  0
ENDTAB
  0
TABLE
  2
DIMSTYLE
  5
A
330
0
100
AcDbSymbolTable
 70
     1
100
AcDbDimStyleTable
  0
DIMSTYLE
105
27
330
A
100
AcDbSymbolTableRecord
100
AcDbDimStyleTableRecord
  2
ISO-25
 70
     0
 41
2.5
 42
0.625
 43
3.75
 44
1.25
 73
     0
 74
     0
 77
     1
 78
     8
140
2.5
141
2.5
143
0.0393700787
147
0.625
171
     3
172
     1
178
     0
271
     2
272
     2
274
     3
278
    44
283
     0
284
     8
340
11
  0
ENDTAB
  0
TABLE
  2
BLOCK_RECORD
  5
1
330
0
100
AcDbSymbolTable
 70
     1
  0
BLOCK_RECORD
  5
1F
330
1
100
AcDbSymbolTableRecord
100
AcDbBlockTableRecord
  2
*Model_Space
340
22
  0
BLOCK_RECORD
  5
1B
330
1
100
AcDbSymbolTableRecord
100
AcDbBlockTableRecord
  2
*Paper_Space
340
1E
  0
BLOCK_RECORD
  5
23
330
1
100
AcDbSymbolTableRecord
100
AcDbBlockTableRecord
  2
*Paper_Space0
340
26
  0
ENDTAB
  0
ENDSEC
  0
SECTION
  2
BLOCKS
  0
BLOCK
  5
20
330
1F
100
AcDbEntity
  8
0
100
AcDbBlockBegin
  2
*Model_Space
 70
     0
 10
0.0
 20
0.0
 30
0.0
  3
*Model_Space
  1

  0
ENDBLK
  5
21
330
1F
100
AcDbEntity
  8
0
100
AcDbBlockEnd
  0
BLOCK
  5
1C
330
1B
100
AcDbEntity
 67
     1
  8
0
100
AcDbBlockBegin
  2
*Paper_Space
 70
     0
 10
0.0
 20
0.0
 30
0.0
  3
*Paper_Space
  1

  0
ENDBLK
  5
1D
330
1B
100
AcDbEntity
 67
     1
  8
0
100
AcDbBlockEnd
  0
BLOCK
  5
24
330
23
100
AcDbEntity
  8
0
100
AcDbBlockBegin
  2
*Paper_Space0
 70
     0
 10
0.0
 20
0.0
 30
0.0
  3
*Paper_Space0
  1

  0
ENDBLK
  5
25
330
23
100
AcDbEntity
  8
0
100
AcDbBlockEnd
  0
ENDSEC
  0
SECTION
  2
ENTITIES
  0
LINE
  5
73
330
1F
100
AcDbEntity
  8
0
  6
Continuous
 62
     7
370
    25
100
AcDbLine
 10
-28.6379113969
 20
-100.0259823685
 30
0.0
 11
-32.7440412046
 21
-100.0259823685
 31
0.0
  0
LINE
  5
74
330
1F
100
AcDbEntity
  8
0
  6
Continuous
 62
     7
370
    25
100
AcDbLine
 10
-32.7440412046
 20
-100.0259823685
 30
0.0
 11
-32.7440412046
 21
-87.3259823685
 31
0.0
  0
LINE
  5
75
330
1F
100
AcDbEntity
  8
0
  6
Continuous
 62
     7
370
    25
100
AcDbLine
 10
-32.7440412046
 20
-87.3259823685
 30
0.0
 11
-29.7700227751
 21
-87.3259823685
 31
0.0
  0
SPLINE
  5
76
330
1F
100
AcDbEntity
  8
0
  6
Continuous
 62
     7
370
    25
100
AcDbSpline
210
0.0
220
0.0
230
1.0
 70
     8
 71
     3
 72
    23
 73
    19
 74
     0
 42
0.000000001
 43
0.00000001
 40
0.0
 40
0.0
 40
0.0
 40
0.0
 40
0.0669423387115959
 40
0.1304162321993768
 40
0.1896816461467954
 40
0.244841226075313
 40
0.2967152203170972
 40
0.3446193532406432
 40
0.3891499983399378
 40
0.4304956004459497
 40
0.5077619003916958
 40
0.5810810197794375
 40
0.6532606290159702
 40
0.7245913822905867
 40
0.7949651404306874
 40
0.8628135214243603
 40
0.9308873728686512
 40
0.9999999999999999
 40
0.9999999999999999
 40
0.9999999999999999
 40
0.9999999999999999
 10
-29.77002277514428
 20
-87.32598236848052
 30
0.0
 10
-29.62498642047924
 20
-87.32664676903197
 30
0.0
 10
-29.34242839709079
 20
-87.32794114592798
 30
0.0
 10
-28.9318697488901
 20
-87.34690842958791
 30
0.0
 10
-28.54728397303975
 20
-87.37309647881361
 30
0.0
 10
-28.18931782211319
 20
-87.41471224738106
 30
0.0
 10
-27.85731890772669
 20
-87.46457364958864
 30
0.0
 10
-27.55043503097185
 20
-87.52492209537155
 30
0.0
 10
-27.26971284000365
 20
-87.59797755537669
 30
0.0
 10
-26.93503566598326
 20
-87.7122842054013
 30
0.0
 10
-26.55437075431518
 20
-87.88229561613647
 30
0.0
 10
-26.14194623871937
 20
-88.13615766172104
 30
0.0
 10
-25.78411411495561
 20
-88.4434738961384
 30
0.0
 10
-25.4805333331703
 20
-88.79568440639878
 30
0.0
 10
-25.23665876059465
 20
-89.18060574898175
 30
0.0
 10
-25.05646334346465
 20
-89.59145082295888
 30
0.0
 10
-24.94953373898387
 20
-90.02576471039747
 30
0.0
 10
-24.935650679989
 20
-90.32316931637088
 30
0.0
 10
-24.92865658924685
 20
-90.47299759283949
 30
0.0
  0
SPLINE
  5
77
330
1F
100
AcDbEntity
  8
0
  6
Continuous
 62
     7
370
    25
100
AcDbSpline
210
0.0
220
0.0
230
1.0
 70
     8
 71
     3
 72
    15
 73
    11
 74
     0
 42
0.000000001
 43
0.00000001
 40
0.0
 40
0.0
 40
0.0
 40
0.0
 40
0.1215455491033248
 40
0.2397745289241946
 40
0.3577175746994584
 40
0.4778751102146032
 40
0.6003593173073974
 40
0.726680256720288
 40
0.858861209324591
 40
1.0
 40
1.0
 40
1.0
 40
1.0
 10
-24.92865658924685
 20
-90.47299759283949
 30
0.0
 10
-24.93333180502162
 20
-90.61346161198313
 30
0.0
 10
-24.94255466565522
 20
-90.89055685956257
 30
0.0
 10
-25.03735866461662
 20
-91.29454497746882
 30
0.0
 10
-25.18146023418064
 20
-91.6808330228232
 30
0.0
 10
-25.38981182310946
 20
-92.04313643030423
 30
0.0
 10
-25.65445911210616
 20
-92.37825416927193
 30
0.0
 10
-25.97257672729954
 20
-92.683606514779
 30
0.0
 10
-26.34890851071644
 20
-92.95318307354998
 30
0.0
 10
-26.62865185542682
 20
-93.09933137785335
 30
0.0
 10
-26.77310771104172
 20
-93.17480047745487
 30
0.0
  0
SPLINE
  5
78
330
1F
100
AcDbEntity
  8
0
  6
Continuous
 62
     7
370
    25
100
AcDbSpline
210
0.0
220
0.0
230
1.0
 70
     8
 71
     3
 72
    19
 73
    15
 74
     0
 42
0.000000001
 43
0.00000001
 40
0.0
 40
0.0
 40
0.0
 40
0.0
 40
0.1157271647783545
 40
0.2205372331538108
 40
0.3135890046258979
 40
0.3971872201378691
 40
0.4744390129767401
 40
0.5498867231330419
 40
0.624893707075121
 40
0.6995489051730329
 40
0.7745160397248382
 40
0.848252599757776
 40
0.9235946196538491
 40
1.0
 40
1.0
 40
1.0
 40
1.0
 10
-26.77310771104172
 20
-93.17480047745487
 30
0.0
 10
-26.59761336194053
 20
-93.23011708935057
 30
0.0
 10
-26.26317988420839
 20
-93.33553203283674
 30
0.0
 10
-25.80005468240637
 20
-93.52181425560296
 30
0.0
 10
-25.40120500774512
 20
-93.72581309207729
 30
0.0
 10
-25.06144784933074
 20
-93.94567959083277
 30
0.0
 10
-24.77488107295012
 20
-94.18945379984892
 30
0.0
 10
-24.51807176119227
 20
-94.44567647618776
 30
0.0
 10
-24.30330941520869
 20
-94.73319799158678
 30
0.0
 10
-24.11846234343088
 20
-95.03930179885981
 30
0.0
 10
-23.97070577597031
 20
-95.3632911924802
 30
0.0
 10
-23.86566630858749
 20
-95.70436028256965
 30
0.0
 10
-23.79981943794015
 20
-96.05806918954154
 30
0.0
 10
-23.79256542300142
 20
-96.29948213566485
 30
0.0
 10
-23.78891299950326
 20
-96.42103445181385
 30
0.0
  0
SPLINE
  5
79
330
1F
100
AcDbEntity
  8
0
  6
Continuous
 62
     7
370
    25
100
AcDbSpline
210
0.0
220
0.0
230
1.0
 70
     8
 71
     3
 72
    23
 73
    19
 74
     0
 42
0.000000001
 43
0.00000001
 40
0.0
 40
0.0
 40
0.0
 40
0.0
 40
0.0552112547439763
 40
0.1088453922761403
 40
0.1617582645183794
 40
0.2145132701045883
 40
0.2685209292216993
 40
0.3243293574329031
 40
0.3822834029657123
 40
0.4430242340170403
 40
0.5055737183412944
 40
0.5691754210197232
 40
0.6340829626721949
 40
0.7008357834865522
 40
0.7708942684224521
 40
0.8436473090217672
 40
0.9199182615844844
 40
1.0
 40
1.0
 40
1.0
 40
1.0
 10
-23.78891299950326
 20
-96.42103445181385
 30
0.0
 10
-23.79276617132196
 20
-96.54508191659954
 30
0.0
 10
-23.80036244856759
 20
-96.78963341299401
 30
0.0
 10
-23.86243945446383
 20
-97.14897849044318
 30
0.0
 10
-23.96845805986946
 20
-97.49140755075351
 30
0.0
 10
-24.11128762548893
 20
-97.8213643770033
 30
0.0
 10
-24.29993168728029
 20
-98.134911057147
 30
0.0
 10
-24.52602090535273
 20
-98.43743750628686
 30
0.0
 10
-24.80011590229848
 20
-98.71856350013759
 30
0.0
 10
-25.10510564809648
 20
-98.98892524854901
 30
0.0
 10
-25.44882358080705
 20
-99.23112684886355
 30
0.0
 10
-25.82055019903931
 20
-99.4469215257238
 30
0.0
 10
-26.22288436321606
 20
-99.62314481273135
 30
0.0
 10
-26.65089226490487
 20
-99.77309295443366
 30
0.0
 10
-27.10858194498008
 20
-99.88581113739016
 30
0.0
 10
-27.59432535083886
 20
-99.9658124393484
 30
0.0
 10
-28.1067088950621
 20
-100.0192129961147
 30
0.0
 10
-28.45798997047828
 20
-100.0236895420575
 30
0.0
 10
-28.63791139693915
 20
-100.0259823684805
 30
0.0
  0
SPLINE
  5
7A
330
1F
100
AcDbEntity
  8
0
  6
Continuous
 62
     7
370
    25
100
AcDbSpline
210
0.0
220
0.0
230
1.0
 70
     8
 71
     3
 72
    23
 73
    19
 74
     0
 42
0.000000001
 43
0.00000001
 40
0.0
 40
0.0
 40
0.0
 40
0.0
 40
0.0568155721686676
 40
0.11212270436357
 40
0.1668227269735993
 40
0.2220963057990682
 40
0.2789336422175926
 40
0.3368754517250792
 40
0.3978515565239451
 40
0.4620390983845885
 40
0.5276558516003226
 40
0.5923161346088017
 40
0.657224597944723
 40
0.7226974727024471
 40
0.7892244270772583
 40
0.8571655146102248
 40
0.9276595053591098
 40
0.9999999999999999
 40
0.9999999999999999
 40
0.9999999999999999
 40
0.9999999999999999
 10
30.98390751331727
 20
-90.87750480437795
 30
0.0
 10
30.98081670246696
 20
-90.7908399310895
 30
0.0
 10
30.9747171410618
 20
-90.61981111635576
 30
0.0
 10
30.93092142361377
 20
-90.36823834798322
 30
0.0
 10
30.85562209536155
 20
-90.12712172055377
 30
0.0
 10
30.75346086837262
 20
-89.89351896432304
 30
0.0
 10
30.62082447625927
 20
-89.66990849878303
 30
0.0
 10
30.45798399640196
 20
-89.45627579389671
 30
0.0
 10
30.26556555241481
 20
-89.25341000961464
 30
0.0
 10
30.04927838782245
 20
-89.05814784011697
 30
0.0
 10
29.80915312520123
 20
-88.88344968203448
 30
0.0
 10
29.55650772595781
 20
-88.72527327293378
 30
0.0
 10
29.28779470527148
 20
-88.59643744842958
 30
0.0
 10
29.00700491526295
 20
-88.4892283977654
 30
0.0
 10
28.71362024788829
 20
-88.40443146446422
 30
0.0
 10
28.40602610492945
 20
-88.34693005552215
 30
0.0
 10
28.08623582754224
 20
-88.3105321072363
 30
0.0
 10
27.86836817820151
 20
-88.30546948184201
 30
0.0
 10
27.75802610306086
 20
-88.3029054454036
 30
0.0
  0
SPLINE
  5
7B
330
1F
100
AcDbEntity
  8
0
  6
Continuous
 62
     7
370
    25
100
AcDbSpline
210
0.0
220
0.0
230
1.0
 70
     8
 71
     3
 72
    23
 73
    19
 74
     0
 42
0.000000001
 43
0.00000001
 40
0.0
 40
0.0
 40
0.0
 40
0.0
 40
0.0693871918249065
 40
0.1365722429923053
 40
0.2009951935038453
 40
0.2639866122632247
 40
0.325003118553078
 40
0.3856722615036748
 40
0.4460875221452449
 40
0.5065218609559501
 40
0.5663769299260878
 40
0.6255172601700718
 40
0.6843557689771045
 40
0.7437446481255309
 40
0.804489748855966
 40
0.8672346408614714
 40
0.9320698263584541
 40
1.0
 40
1.0
 40
1.0
 40
1.0
 10
27.75802610306086
 20
-88.3029054454036
 30
0.0
 10
27.64176902045532
 20
-88.30554213552236
 30
0.0
 10
27.41294450518676
 20
-88.31073183515028
 30
0.0
 10
27.07751221142173
 20
-88.34579543228672
 30
0.0
 10
26.75711377174623
 20
-88.40791685982734
 30
0.0
 10
26.45210966614804
 20
-88.49078395831852
 30
0.0
 10
26.16161341113028
 20
-88.59856324332098
 30
0.0
 10
25.88604288740792
 20
-88.73066917230207
 30
0.0
 10
25.62613598181971
 20
-88.8894871482101
 30
0.0
 10
25.38220740429821
 20
-89.06948685480309
 30
0.0
 10
25.15762712781461
 20
-89.27005206512959
 30
0.0
 10
24.957475262351
 20
-89.49180680053045
 30
0.0
 10
24.78750557168003
 20
-89.73626174374718
 30
0.0
 10
24.63804329679794
 20
-89.99672934089229
 30
0.0
 10
24.51589011692976
 20
-90.27845987275815
 30
0.0
 10
24.41998929706305
 20
-90.57945273244246
 30
0.0
 10
24.34729301817208
 20
-90.89948510686074
 30
0.0
 10
24.32147594459083
 20
-91.12056027268761
 30
0.0
 10
24.30826648767624
 20
-91.23367467617283
 30
0.0
  0
LINE
  5
7C
330
1F
100
AcDbEntity
  8
0
  6
Continuous
 62
     7
370
    25
100
AcDbLine
 10
24.3082664877
 20
-91.2336746762
 30
0.0
 11
22.8428818723
 21
-91.2336746762
 31
0.0
  0
SPLINE
  5
7D
330
1F
100
AcDbEntity
  8
0
  6
Continuous
 62
     7
370
    25
100
AcDbSpline
210
0.0
220
0.0
230
1.0
 70
     8
 71
     3
 72
    23
 73
    19
 74
     0
 42
0.000000001
 43
0.00000001
 40
0.0
 40
0.0
 40
0.0
 40
0.0
 40
0.0624595019706429
 40
0.122908837919722
 40
0.181678925233355
 40
0.2401525926561273
 40
0.2982536086166074
 40
0.3572605892586155
 40
0.4177149858893298
 40
0.4800980320137075
 40
0.5434871171908057
 40
0.6058936981674263
 40
0.6684706421132328
 40
0.7319378633808545
 40
0.7960381993776418
 40
0.8616927542954184
 40
0.929644407692738
 40
1.0
 40
1.0
 40
1.0
 40
1.0
 10
22.84288187229163
 20
-91.23367467617284
 30
0.0
 10
22.85153622944303
 20
-91.08238877703846
 30
0.0
 10
22.86856641615381
 20
-90.7846858900544
 30
0.0
 10
22.94899762575038
 20
-90.35043252528277
 30
0.0
 10
23.07186375541338
 20
-89.93683371999177
 30
0.0
 10
23.23722136670708
 20
-89.54417044007361
 30
0.0
 10
23.44633649839665
 20
-89.17264724733019
 30
0.0
 10
23.69265825206542
 20
-88.81850146023044
 30
0.0
 10
23.98883852685932
 20
-88.49072700090944
 30
0.0
 10
24.32070078136772
 20
-88.18381770514777
 30
0.0
 10
24.68415694023988
 20
-87.90708331609211
 30
0.0
 10
25.07052994816052
 20
-87.66238187270388
 30
0.0
 10
25.48035408580125
 20
-87.45887687233831
 30
0.0
 10
25.91017240072683
 20
-87.29068109408026
 30
0.0
 10
26.36095856814648
 20
-87.16110745162578
 30
0.0
 10
26.83128946247127
 20
-87.0666134188585
 30
0.0
 10
27.32327495773144
 20
-87.00964067383084
 30
0.0
 10
27.65865527239788
 20
-87.00347683139219
 30
0.0
 10
27.82926007741983
 20
-87.00034134283949
 30
0.0
  0
SPLINE
  5
7E
330
1F
100
AcDbEntity
  8
0
  6
Continuous
 62
     7
370
    25
100
AcDbSpline
210
0.0
220
0.0
230
1.0
 70
     8
 71
     3
 72
    23
 73
    19
 74
     0
 42
0.000000001
 43
0.00000001
 40
0.0
 40
0.0
 40
0.0
 40
0.0
 40
0.0755439683563392
 40
0.1480525798285259
 40
0.2172230472500457
 40
0.2845778397014365
 40
0.3497896569535848
 40
0.4140797655511758
 40
0.4775402308613236
 40
0.5412579114512492
 40
0.603818510029469
 40
0.6635800461115807
 40
0.7211192641074533
 40
0.7772645163935684
 40
0.8323510444172668
 40
0.8875021962795344
 40
0.943104919354293
 40
1.0
 40
1.0
 40
1.0
 40
1.0
 10
27.82926007741983
 20
-87.00034134283949
 30
0.0
 10
27.99730320032732
 20
-87.00366838486295
 30
0.0
 10
28.32663747293981
 20
-87.01018878835102
 30
0.0
 10
28.80756404178888
 20
-87.06386563512478
 30
0.0
 10
29.2639425493378
 20
-87.1543013459946
 30
0.0
 10
29.69721324518633
 20
-87.27341880171029
 30
0.0
 10
30.10467916313183
 20
-87.43595566152032
 30
0.0
 10
30.48687971435774
 20
-87.632255631473
 30
0.0
 10
30.8468679866215
 20
-87.86137995433455
 30
0.0
 10
31.17397583604601
 20
-88.1291627388673
 30
0.0
 10
31.47270711766253
 20
-88.41603435464575
 30
0.0
 10
31.7343514797719
 20
-88.71963252924783
 30
0.0
 10
31.95407820079751
 20
-89.03736195394796
 30
0.0
 10
32.13780630313509
 20
-89.36573545096908
 30
0.0
 10
32.27387165124759
 20
-89.71071364469799
 30
0.0
 10
32.37843231477238
 20
-90.06505495239286
 30
0.0
 10
32.43699631737267
 20
-90.4345916954825
 30
0.0
 10
32.44516225524352
 20
-90.68481171607591
 30
0.0
 10
32.44929212870189
 20
-90.81135897104463
 30
0.0
  0
SPLINE
  5
7F
330
1F
100
AcDbEntity
  8
0
  6
Continuous
 62
     7
370
    25
100
AcDbSpline
210
0.0
220
0.0
230
1.0
 70
     8
 71
     3
 72
    23
 73
    19
 74
     0
 42
0.000000001
 43
0.00000001
 40
0.0
 40
0.0
 40
0.0
 40
0.0
 40
0.0471936987874529
 40
0.0941646026550241
 40
0.1407647004900439
 40
0.1876065867987881
 40
0.2347682166576786
 40
0.28206652241945
 40
0.3304755998546326
 40
0.3798501485218766
 40
0.4327989293930771
 40
0.4929901260461271
 40
0.5599282665518333
 40
0.6337073023934491
 40
0.7143972929783707
 40
0.8023698899558013
 40
0.897665503342573
 40
1.0
 40
1.0
 40
1.0
 40
1.0
 10
32.44929212870188
 20
-90.81135897104461
 30
0.0
 10
32.44708522883098
 20
-90.90045910930684
 30
0.0
 10
32.44268184755798
 20
-91.0782387564109
 30
0.0
 10
32.41493891082138
 20
-91.34296819914873
 30
0.0
 10
32.36502438114213
 20
-91.60348765884976
 30
0.0
 10
32.30102630383151
 20
-91.86149232690981
 30
0.0
 10
32.20932369522225
 20
-92.11236603692096
 30
0.0
 10
32.10564028347666
 20
-92.36150574310919
 30
0.0
 10
31.98081278778596
 20
-92.60572241242676
 30
0.0
 10
31.8322274268798
 20
-92.84867893156171
 30
0.0
 10
31.657541714291
 20
-93.10114077894134
 30
0.0
 10
31.44833665892993
 20
-93.36934833897666
 30
0.0
 10
31.20355135748271
 20
-93.65923292401568
 30
0.0
 10
30.92296788842067
 20
-93.96920464233123
 30
0.0
 10
30.60716990520315
 20
-94.30067806881219
 30
0.0
 10
30.25213964001351
 20
-94.65050807223801
 30
0.0
 10
29.86395399130373
 20
-95.02484697949916
 30
0.0
 10
29.58943639373606
 20
-95.27761106502527
 30
0.0
 10
29.44728892357368
 20
-95.40849438771129
 30
0.0
  0
LINE
  5
80
330
1F
100
AcDbEntity
  8
0
  6
Continuous
 62
     7
370
    25
100
AcDbLine
 10
29.4472889236
 20
-95.4084943877
 30
0.0
 11
25.7914595967
 21
-98.7234182659
 31
0.0
  0
LINE
  5
81
330
1F
100
AcDbEntity
  8
0
  6
Continuous
 62
     7
370
    25
100
AcDbLine
 10
25.7914595967
 20
-98.7234182659
 30
0.0
 11
32.6121126415
 21
-98.7234182659
 31
0.0
  0
LINE
  5
82
330
1F
100
AcDbEntity
  8
0
  6
Continuous
 62
     7
370
    25
100
AcDbLine
 10
32.6121126415
 20
-98.7234182659
 30
0.0
 11
32.6121126415
 21
-100.0259823685
 31
0.0
  0
LINE
  5
83
330
1F
100
AcDbEntity
  8
0
  6
Continuous
 62
     7
370
    25
100
AcDbLine
 10
32.6121126415
 20
-100.0259823685
 30
0.0
 11
22.3544203338
 21
-100.0259823685
 31
0.0
  0
LINE
  5
84
330
1F
100
AcDbEntity
  8
0
  6
Continuous
 62
     7
370
    25
100
AcDbLine
 10
22.3544203338
 20
-100.0259823685
 30
0.0
 11
28.1549011031
 21
-94.769932689
 31
0.0
  0
SPLINE
  5
85
330
1F
100
AcDbEntity
  8
0
  6
Continuous
 62
     7
370
    25
100
AcDbSpline
210
0.0
220
0.0
230
1.0
 70
     8
 71
     3
 72
    19
 73
    15
 74
     0
 42
0.000000001
 43
0.00000001
 40
0.0
 40
0.0
 40
0.0
 40
0.0
 40
0.1140913523990297
 40
0.2190328984669196
 40
0.3144706496804023
 40
0.4011753789115322
 40
0.4788180200727831
 40
0.5470772481369833
 40
0.6067850671568066
 40
0.6576765714182378
 40
0.7476816539704868
 40
0.8336349133073472
 40
0.916625251321592
 40
1.0
 40
1.0
 40
1.0
 40
1.0
 10
28.15490110306086
 20
-94.76993268899334
 30
0.0
 10
28.29594059407174
 20
-94.64472758600503
 30
0.0
 10
28.56670860466001
 20
-94.40435847797251
 30
0.0
 10
28.95120866618139
 20
-94.05445481396961
 30
0.0
 10
29.294610539855
 20
-93.7269183903266
 30
0.0
 10
29.60413344885635
 20
-93.42913877501407
 30
0.0
 10
29.86969536705666
 20
-93.15099922494056
 30
0.0
 10
30.10131390420506
 20
-92.9021778368775
 30
0.0
 10
30.29199141499616
 20
-92.67607874057848
 30
0.0
 10
30.49441451915414
 20
-92.41320774129579
 30
0.0
 10
30.68938887349927
 20
-92.0912476254972
 30
0.0
 10
30.86040721656054
 20
-91.69759416924083
 30
0.0
 10
30.96503107643797
 20
-91.29078694579788
 30
0.0
 10
30.97760568254039
 20
-91.01547756560352
 30
0.0
 10
30.98390751331727
 20
-90.87750480437796
 30
0.0
  0
SPLINE
  5
86
330
1F
100
AcDbEntity
  8
0
  6
Continuous
 62
     7
370
    25
100
AcDbSpline
210
0.0
220
0.0
230
1.0
 70
     8
 71
     3
 72
    15
 73
    11
 74
     0
 42
0.000000001
 43
0.00000001
 40
0.0
 40
0.0
 40
0.0
 40
0.0
 40
0.0789463712352723
 40
0.1707957941280885
 40
0.2759400268661624
 40
0.3935882105316578
 40
0.525000569768388
 40
0.669309533336202
 40
0.8276203347820574
 40
1.0
 40
1.0
 40
1.0
 40
1.0
 10
-14.59158928155454
 20
-53.33938381078821
 30
0.0
 10
-14.6138739560024
 20
-53.27184761129864
 30
0.0
 10
-14.66208552810702
 20
-53.12573704733317
 30
0.0
 10
-14.71538372877823
 20
-52.88274428697891
 30
0.0
 10
-14.76399615922454
 20
-52.60361187992846
 30
0.0
 10
-14.80040215990444
 20
-52.28666212607042
 30
0.0
 10
-14.83143028458585
 20
-51.933820216372
 30
0.0
 10
-14.85024570146739
 20
-51.54343122133634
 30
0.0
 10
-14.86325599369441
 20
-51.11595440512198
 30
0.0
 10
-14.86528909713771
 20
-50.8182214632319
 30
0.0
 10
-14.86634889693916
 20
-50.66302163130103
 30
0.0
  0
LINE
  5
87
330
1F
100
AcDbEntity
  8
0
  6
Continuous
 62
     7
370
    25
100
AcDbLine
 10
-14.8663488969
 20
-50.6630216313
 30
0.0
 11
-14.8663488969
 21
-42.9926490351
 31
0.0
  0
LINE
  5
88
330
1F
100
AcDbEntity
  8
0
  6
Continuous
 62
     7
370
    25
100
AcDbLine
 10
-14.8663488969
 20
-42.9926490351
 30
0.0
 11
-13.4009642816
 21
-42.9926490351
 31
0.0
  0
LINE
  5
89
330
1F
100
AcDbEntity
  8
0
  6
Continuous
 62
     7
370
    25
100
AcDbLine
 10
-13.4009642816
 20
-42.9926490351
 30
0.0
 11
-13.4009642816
 21
-50.601963939
 31
0.0
  0
SPLINE
  5
8A
330
1F
100
AcDbEntity
  8
0
  6
Continuous
 62
     7
370
    25
100
AcDbSpline
210
0.0
220
0.0
230
1.0
 70
     8
 71
     3
 72
    15
 73
    11
 74
     0
 42
0.000000001
 43
0.00000001
 40
0.0
 40
0.0
 40
0.0
 40
0.0
 40
0.1909949964420851
 40
0.3624657060957517
 40
0.5158706341633037
 40
0.6497935396133111
 40
0.7656815123582493
 40
0.8622242425522668
 40
0.9406579458711304
 40
1.0
 40
1.0
 40
1.0
 40
1.0
 10
-13.40096428155455
 20
-50.60196393899334
 30
0.0
 10
-13.40162887594659
 20
-50.70967028660408
 30
0.0
 10
-13.40289012718388
 20
-50.91407280009904
 30
0.0
 10
-13.39446538974912
 20
-51.20487056373692
 30
0.0
 10
-13.39562006310612
 20
-51.46365193067371
 30
0.0
 10
-13.38512949991393
 20
-51.69078462104156
 30
0.0
 10
-13.3811334195561
 20
-51.88616958477333
 30
0.0
 10
-13.36469949571387
 20
-52.04939260115565
 30
0.0
 10
-13.35881088480046
 20
-52.18159480538054
 30
0.0
 10
-13.3455977021962
 20
-52.25822220601634
 30
0.0
 10
-13.33990658924685
 20
-52.29122675950615
 30
0.0
  0
SPLINE
  5
8B
330
1F
100
AcDbEntity
  8
0
  6
Continuous
 62
     7
370
    25
100
AcDbSpline
210
0.0
220
0.0
230
1.0
 70
     8
 71
     3
 72
    19
 73
    15
 74
     0
 42
0.000000001
 43
0.00000001
 40
0.0
 40
0.0
 40
0.0
 40
0.0
 40
0.0780971616216887
 40
0.1524411934550938
 40
0.223427824146915
 40
0.2934948126327309
 40
0.3652381162560676
 40
0.4430260867964189
 40
0.5280697318828785
 40
0.6220557863591616
 40
0.718999440158794
 40
0.8139852487941414
 40
0.9071701627686863
 40
1.0
 40
1.0
 40
1.0
 40
1.0
 10
-13.33990658924685
 20
-52.29122675950615
 30
0.0
 10
-13.31728487410075
 20
-52.41062013385617
 30
0.0
 10
-13.27312857977116
 20
-52.64366917300961
 30
0.0
 10
-13.16118391915014
 20
-52.97401529418416
 30
0.0
 10
-13.00876587007085
 20
-53.27324523900707
 30
0.0
 10
-12.81905398877537
 20
-53.54605515433587
 30
0.0
 10
-12.5771985535468
 20
-53.78898746582483
 30
0.0
 10
-12.28732092108041
 20
-54.01212037780875
 30
0.0
 10
-11.93859721101223
 20
-54.20858344682388
 30
0.0
 10
-11.54719562793587
 20
-54.38549560227778
 30
0.0
 10
-11.12618603134537
 20
-54.5302488570279
 30
0.0
 10
-10.69572386718585
 20
-54.63780071749368
 30
0.0
 10
-10.26282413309788
 20
-54.70448537387235
 30
0.0
 10
-9.973483461466655
 20
-54.71198386797373
 30
0.0
 10
-9.829089281554543
 20
-54.71572595822411
 30
0.0
  0
SPLINE
  5
8C
330
1F
100
AcDbEntity
  8
0
  6
Continuous
 62
     7
370
    25
100
AcDbSpline
210
0.0
220
0.0
230
1.0
 70
     8
 71
     3
 72
    19
 73
    15
 74
     0
 42
0.000000001
 43
0.00000001
 40
0.0
 40
0.0
 40
0.0
 40
0.0
 40
0.0887405274424533
 40
0.1769227231762974
 40
0.2642480675349286
 40
0.3517947265255931
 40
0.4382184842278986
 40
0.5211290684125854
 40
0.6015184473598281
 40
0.6806252482313795
 40
0.7589265361826084
 40
0.8380682746215756
 40
0.9173565827318285
 40
1.0
 40
1.0
 40
1.0
 40
1.0
 10
-9.829089281554543
 20
-54.71572595822411
 30
0.0
 10
-9.705154962774559
 20
-54.71181578148364
 30
0.0
 10
-9.458066086863008
 20
-54.70402002979093
 30
0.0
 10
-9.091207990065369
 20
-54.65629288832865
 30
0.0
 10
-8.73366877615513
 20
-54.56984542225985
 30
0.0
 10
-8.38552651752564
 20
-54.4582560272531
 30
0.0
 10
-8.058256762948949
 20
-54.30987132131786
 30
0.0
 10
-7.751944998432559
 20
-54.14152839799968
 30
0.0
 10
-7.479227410800759
 20
-53.93956466247108
 30
0.0
 10
-7.230052013688232
 20
-53.71914063141509
 30
0.0
 10
-7.011514220902755
 20
-53.46993357085351
 30
0.0
 10
-6.826856055532519
 20
-53.19481051124021
 30
0.0
 10
-6.670543009938557
 20
-52.89541387097273
 30
0.0
 10
-6.593956960347294
 20
-52.68235515584374
 30
0.0
 10
-6.554870531554541
 20
-52.57361858642923
 30
0.0
  0
SPLINE
  5
8D
330
1F
100
AcDbEntity
  8
0
  6
Continuous
 62
     7
370
    25
100
AcDbSpline
210
0.0
220
0.0
230
1.0
 70
     8
 71
     3
 72
    15
 73
    11
 74
     0
 42
0.000000001
 43
0.00000001
 40
0.0
 40
0.0
 40
0.0
 40
0.0
 40
0.0703256478360311
 40
0.1566236606164477
 40
0.2587811897029047
 40
0.3748177108042304
 40
0.507180020306449
 40
0.6561341532146935
 40
0.8203899566356074
 40
1.0
 40
1.0
 40
1.0
 40
1.0
 10
-6.554870531554541
 20
-52.57361858642923
 30
0.0
 10
-6.542477438458883
 20
-52.52880496165131
 30
0.0
 10
-6.51487653229264
 20
-52.42899963920943
 30
0.0
 10
-6.482076365524744
 20
-52.26086045416482
 30
0.0
 10
-6.459617765676708
 20
-52.0607811032705
 30
0.0
 10
-6.43448333000802
 20
-51.83037275778295
 30
0.0
 10
-6.422043293996533
 20
-51.56791028472991
 30
0.0
 10
-6.408209020380547
 20
-51.27372200093313
 30
0.0
 10
-6.401078027148182
 20
-50.94799018327674
 30
0.0
 10
-6.400161142753635
 20
-50.72068915616272
 30
0.0
 10
-6.399682230272492
 20
-50.60196393899334
 30
0.0
  0
LINE
  5
8E
330
1F
100
AcDbEntity
  8
0
  6
Continuous
 62
     7
370
    25
100
AcDbLine
 10
-6.3996822303
 20
-50.601963939
 30
0.0
 11
-6.3996822303
 21
-42.9926490351
 31
0.0
  0
LINE
  5
8F
330
1F
100
AcDbEntity
  8
0
  6
Continuous
 62
     7
370
    25
100
AcDbLine
 10
-6.3996822303
 20
-42.9926490351
 30
0.0
 11
-4.9342976149
 21
-42.9926490351
 31
0.0
  0
LINE
  5
90
330
1F
100
AcDbEntity
  8
0
  6
Continuous
 62
     7
370
    25
100
AcDbLine
 10
-4.9342976149
 20
-42.9926490351
 30
0.0
 11
-4.9342976149
 21
-50.6630216313
 31
0.0
  0
SPLINE
  5
91
330
1F
100
AcDbEntity
  8
0
  6
Continuous
 62
     7
370
    25
100
AcDbSpline
210
0.0
220
0.0
230
1.0
 70
     8
 71
     3
 72
    31
 73
    27
 74
     0
 42
0.000000001
 43
0.00000001
 40
0.0
 40
0.0
 40
0.0
 40
0.0
 40
0.050335609491811
 40
0.0982608635390537
 40
0.1441108950005102
 40
0.1873517063981615
 40
0.2283688930718271
 40
0.2671886031869585
 40
0.3043454899411745
 40
0.3392052952936233
 40
0.3731013039070371
 40
0.4075040741940399
 40
0.4427027616490209
 40
0.4785337028898223
 40
0.5159016918441759
 40
0.5543698060172226
 40
0.5945414288576212
 40
0.6364326430956354
 40
0.6792212621638593
 40
0.7223063378761424
 40
0.7659422511910116
 40
0.8099859602348581
 40
0.8556035320141949
 40
0.9022053971594881
 40
0.9502617793337058
 40
1.0
 40
1.0
 40
1.0
 40
1.0
 10
-4.934297614887874
 20
-50.66302163130103
 30
0.0
 10
-4.934720257466442
 20
-50.80128464352121
 30
0.0
 10
-4.935545304091642
 20
-51.07118984807579
 30
0.0
 10
-4.958106139377935
 20
-51.4664471055416
 30
0.0
 10
-4.986869456104597
 20
-51.84167002730172
 30
0.0
 10
-5.02989697483821
 20
-52.19655809056204
 30
0.0
 10
-5.086595166579452
 20
-52.5298348564723
 30
0.0
 10
-5.150919412792898
 20
-52.84481746171679
 30
0.0
 10
-5.233082127562051
 20
-53.13810345139126
 30
0.0
 10
-5.324064310494473
 20
-53.41454095305876
 30
0.0
 10
-5.434488183299564
 20
-53.67590715671689
 30
0.0
 10
-5.570363395947303
 20
-53.92603533646913
 30
0.0
 10
-5.73073268496794
 20
-54.16759714404493
 30
0.0
 10
-5.916522619196253
 20
-54.40050411261415
 30
0.0
 10
-6.123327837711193
 20
-54.62752117173749
 30
0.0
 10
-6.361055906705321
 20
-54.84011901583634
 30
0.0
 10
-6.617098071762777
 20
-55.05011808789125
 30
0.0
 10
-6.8980829985922
 20
-55.24725813539148
 30
0.0
 10
-7.199537829636719
 20
-55.42746612458262
 30
0.0
 10
-7.518631399096252
 20
-55.58540945464935
 30
0.0
 10
-7.851807462052815
 20
-55.72027842878069
 30
0.0
 10
-8.201122296140964
 20
-55.83129104001728
 30
0.0
 10
-8.566663087905285
 20
-55.91303345279933
 30
0.0
 10
-8.9470936815751
 20
-55.97512737475794
 30
0.0
 10
-9.342499319725576
 20
-56.01052965345778
 30
0.0
 10
-9.611079473135506
 20
-56.01567376942275
 30
0.0
 10
-9.747679025144285
 20
-56.0182900607882
 30
0.0
  0
SPLINE
  5
92
330
1F
100
AcDbEntity
  8
0
  6
Continuous
 62
     7
370
    25
100
AcDbSpline
210
0.0
220
0.0
230
1.0
 70
     8
 71
     3
 72
    23
 73
    19
 74
     0
 42
0.000000001
 43
0.00000001
 40
0.0
 40
0.0
 40
0.0
 40
0.0
 40
0.075583567793535
 40
0.1487614710735088
 40
0.2194030939291776
 40
0.2880698702451177
 40
0.3552049141533059
 40
0.4204661435748878
 40
0.4848648518743008
 40
0.5480052606188747
 40
0.6098331457392326
 40
0.6691579269771468
 40
0.7267093229876448
 40
0.7828840056639217
 40
0.8375008269047823
 40
0.8917443885910533
 40
0.9456345907227284
 40
1.0
 40
1.0
 40
1.0
 40
1.0
 10
-9.747679025144285
 20
-56.0182900607882
 30
0.0
 10
-9.896126131324886
 20
-56.0154088892838
 30
0.0
 10
-10.18829558742088
 20
-56.00973824784781
 30
0.0
 10
-10.61846922583972
 20
-55.97808307905519
 30
0.0
 10
-11.03164189056906
 20
-55.91763458401775
 30
0.0
 10
-11.43016435480097
 20
-55.84109942577613
 30
0.0
 10
-11.81096025149849
 20
-55.73520377004215
 30
0.0
 10
-12.17763290840928
 20
-55.61186196009143
 30
0.0
 10
-12.52527850862034
 20
-55.46067403044674
 30
0.0
 10
-12.85658057687309
 20
-55.2909988617786
 30
0.0
 10
-13.16546652950777
 20
-55.10146222303258
 30
0.0
 10
-13.44939805416865
 20
-54.89447838633244
 30
0.0
 10
-13.70760103777403
 20
-54.67276987955793
 30
0.0
 10
-13.93911265090989
 20
-54.43618349863085
 30
0.0
 10
-14.14584193883839
 20
-54.18568067903261
 30
0.0
 10
-14.31988987429941
 20
-53.91700853160996
 30
0.0
 10
-14.47313681150186
 20
-53.63632109907262
 30
0.0
 10
-14.5519897452391
 20
-53.43865214116239
 30
0.0
 10
-14.59158928155454
 20
-53.33938381078821
 30
0.0
  0
CIRCLE
  5
93
330
1F
100
AcDbEntity
  8
0
  6
Continuous
 62
     7
370
    25
100
AcDbCircle
 10
65.0
 20
-60.0
 30
0.0
 40
1.79999999999999
  0
LINE
  5
94
330
1F
100
AcDbEntity
  8
0
  6
Continuous
 62
     7
370
    25
100
AcDbLine
 10
100.0
 20
10.0
 30
0.0
 11
80.7464176012
 21
54.0081883402
 31
0.0
  0
ARC
  5
95
330
1F
100
AcDbEntity
  8
0
  6
Continuous
 62
     7
370
    25
100
AcDbCircle
 10
71.5848442521
 20
50.0
 30
0.0
 40
10.00000000000001
100
AcDbArc
 50
23.6293777307
 51
90.0
  0
LINE
  5
96
330
1F
100
AcDbEntity
  8
0
  6
Continuous
 62
     7
370
    25
100
AcDbLine
 10
71.5848442521
 20
60.0
 30
0.0
 11
-71.5848442521
 21
60.0
 31
0.0
  0
ARC
  5
97
330
1F
100
AcDbEntity
  8
0
  6
Continuous
 62
     7
370
    25
100
AcDbCircle
 10
-71.5848442521
 20
50.0
 30
0.0
 40
10.00000000000001
100
AcDbArc
 50
90.0
 51
156.3706222693
  0
LINE
  5
98
330
1F
100
AcDbEntity
  8
0
  6
Continuous
 62
     7
370
    25
100
AcDbLine
 10
-80.7464176012
 20
54.0081883402
 30
0.0
 11
-100.0
 21
10.0
 31
0.0
  0
LINE
  5
99
330
1F
100
AcDbEntity
  8
0
  6
Continuous
 62
     7
370
    25
100
AcDbLine
 10
-100.0
 20
10.0
 30
0.0
 11
-100.0
 21
-40.0
 31
0.0
  0
ARC
  5
9A
330
1F
100
AcDbEntity
  8
0
  6
Continuous
 62
     7
370
    25
100
AcDbCircle
 10
-90.0
 20
-40.0
 30
0.0
 40
9.999999999999993
100
AcDbArc
 50
180.0
 51
270.0
  0
LINE
  5
9B
330
1F
100
AcDbEntity
  8
0
  6
Continuous
 62
     7
370
    25
100
AcDbLine
 10
-90.0
 20
-50.0
 30
0.0
 11
-75.0
 21
-50.0
 31
0.0
  0
LINE
  5
9C
330
1F
100
AcDbEntity
  8
0
  6
Continuous
 62
     7
370
    25
100
AcDbLine
 10
-75.0
 20
-50.0
 30
0.0
 11
-75.0
 21
-110.0
 31
0.0
  0
ARC
  5
9D
330
1F
100
AcDbEntity
  8
0
  6
Continuous
 62
     7
370
    25
100
AcDbCircle
 10
-65.0
 20
-110.0
 30
0.0
 40
10.00000000000001
100
AcDbArc
 50
180.0
 51
270.0
  0
LINE
  5
9E
330
1F
100
AcDbEntity
  8
0
  6
Continuous
 62
     7
370
    25
100
AcDbLine
 10
-65.0
 20
-120.0
 30
0.0
 11
65.0
 21
-120.0
 31
0.0
  0
ARC
  5
9F
330
1F
100
AcDbEntity
  8
0
  6
Continuous
 62
     7
370
    25
100
AcDbCircle
 10
65.0
 20
-110.0
 30
0.0
 40
10.00000000000001
100
AcDbArc
 50
270.0
 51
0.0
  0
LINE
  5
A0
330
1F
100
AcDbEntity
  8
0
  6
Continuous
 62
     7
370
    25
100
AcDbLine
 10
75.0
 20
-110.0
 30
0.0
 11
75.0
 21
-50.0
 31
0.0
  0
LINE
  5
A1
330
1F
100
AcDbEntity
  8
0
  6
Continuous
 62
     7
370
    25
100
AcDbLine
 10
75.0
 20
-50.0
 30
0.0
 11
90.0
 21
-50.0
 31
0.0
  0
ARC
  5
A2
330
1F
100
AcDbEntity
  8
0
  6
Continuous
 62
     7
370
    25
100
AcDbCircle
 10
90.0
 20
-40.0
 30
0.0
 40
9.999999999999993
100
AcDbArc
 50
270.0
 51
0.0
  0
LINE
  5
A3
330
1F
100
AcDbEntity
  8
0
  6
Continuous
 62
     7
370
    25
100
AcDbLine
 10
100.0
 20
-40.0
 30
0.0
 11
100.0
 21
10.0
 31
0.0
  0
CIRCLE
  5
A4
330
1F
100
AcDbEntity
  8
0
  6
Continuous
 62
     7
370
    25
100
AcDbCircle
 10
-65.0
 20
-60.0
 30
0.0
 40
1.79999999999999
  0
LINE
  5
A5
330
1F
100
AcDbEntity
  8
0
  6
Continuous
 62
     7
370
    25
100
AcDbLine
 10
50.0
 20
-73.0
 30
0.0
 11
50.0
 21
-70.0
 31
0.0
  0
LINE
  5
A6
330
1F
100
AcDbEntity
  8
0
  6
Continuous
 62
     7
370
    25
100
AcDbLine
 10
-50.0
 20
-73.0
 30
0.0
 11
50.0
 21
-73.0
 31
0.0
  0
LINE
  5
A7
330
1F
100
AcDbEntity
  8
0
  6
Continuous
 62
     7
370
    25
100
AcDbLine
 10
-50.0
 20
-70.0
 30
0.0
 11
-50.0
 21
-73.0
 31
0.0
  0
LINE
  5
A8
330
1F
100
AcDbEntity
  8
0
  6
Continuous
 62
     7
370
    25
100
AcDbLine
 10
50.0
 20
-70.0
 30
0.0
 11
-50.0
 21
-70.0
 31
0.0
  0
LINE
  5
A9
330
1F
100
AcDbEntity
  8
0
  6
Continuous
 62
     7
370
    25
100
AcDbLine
 10
-65.0
 20
-40.0
 30
0.0
 11
-65.0
 21
16.0
 31
0.0
  0
LINE
  5
AA
330
1F
100
AcDbEntity
  8
0
  6
Continuous
 62
     7
370
    25
100
AcDbLine
 10
-80.0
 20
-40.0
 30
0.0
 11
-65.0
 21
-40.0
 31
0.0
  0
LINE
  5
AB
330
1F
100
AcDbEntity
  8
0
  6
Continuous
 62
     7
370
    25
100
AcDbLine
 10
-80.0
 20
16.0
 30
0.0
 11
-80.0
 21
-40.0
 31
0.0
  0
LINE
  5
AC
330
1F
100
AcDbEntity
  8
0
  6
Continuous
 62
     7
370
    25
100
AcDbLine
 10
-65.0
 20
16.0
 30
0.0
 11
-80.0
 21
16.0
 31
0.0
  0
CIRCLE
  5
AD
330
1F
100
AcDbEntity
  8
0
  6
Continuous
 62
     7
370
    25
100
AcDbCircle
 10
41.5
 20
16.0
 30
0.0
 40
3.25
  0
CIRCLE
  5
AE
330
1F
100
AcDbEntity
  8
0
  6
Continuous
 62
     7
370
    25
100
AcDbCircle
 10
41.5
 20
-40.0
 30
0.0
 40
3.250000000000007
  0
CIRCLE
  5
AF
330
1F
100
AcDbEntity
  8
0
  6
Continuous
 62
     7
370
    25
100
AcDbCircle
 10
-41.5
 20
16.0
 30
0.0
 40
3.250000000000004
  0
CIRCLE
  5
B0
330
1F
100
AcDbEntity
  8
0
  6
Continuous
 62
     7
370
    25
100
AcDbCircle
 10
-41.5
 20
-40.0
 30
0.0
 40
3.25
  0
CIRCLE
  5
B1
330
1F
100
AcDbEntity
  8
0
  6
Continuous
 62
     7
370
    25
100
AcDbCircle
 10
-68.125
 20
50.0
 30
0.0
 40
1.79999999999999
  0
CIRCLE
  5
B2
330
1F
100
AcDbEntity
  8
0
  6
Continuous
 62
     7
370
    25
100
AcDbCircle
 10
68.125
 20
50.0
 30
0.0
 40
1.799999999999997
  0
SPLINE
  5
B3
330
1F
100
AcDbEntity
  8
0
  6
Continuous
 62
     7
370
    25
100
AcDbSpline
210
0.0
220
0.0
230
1.0
 70
     8
 71
     3
 72
    31
 73
    27
 74
     0
 42
0.000000001
 43
0.00000001
 40
0.0
 40
0.0
 40
0.0
 40
0.0
 40
0.0608636770824706
 40
0.1186325814419284
 40
0.1736586718591622
 40
0.2255221869607642
 40
0.2746157560096648
 40
0.3211596703912253
 40
0.3655310412553897
 40
0.4075431368089985
 40
0.4479539260551642
 40
0.4870565112620799
 40
0.5253940125831847
 40
0.5629950082109461
 40
0.599841906100272
 40
0.6363441359637781
 40
0.6727029228099882
 40
0.7089654411865401
 40
0.745126553021158
 40
0.7810240442430308
 40
0.8168545881902726
 40
0.8527451935468066
 40
0.8887771860889608
 40
0.9251252890295772
 40
0.9622499924526455
 40
1.0
 40
1.0
 40
1.0
 40
1.0
 10
18.51185623126598
 20
-93.68107050950617
 30
0.0
 10
18.51026314069968
 20
-93.87532330631055
 30
0.0
 10
18.50715796442033
 20
-94.25395160880356
 30
0.0
 10
18.47259756493996
 20
-94.80727689557533
 30
0.0
 10
18.42065778940285
 20
-95.33030947271844
 30
0.0
 10
18.34679292676454
 20
-95.82275208374446
 30
0.0
 10
18.25436982503631
 20
-96.28461416268436
 30
0.0
 10
18.13608892109736
 20
-96.71573355963714
 30
0.0
 10
18.00143214268124
 20
-97.11841703873347
 30
0.0
 10
17.83862815598801
 20
-97.48935753010353
 30
0.0
 10
17.65998760214272
 20
-97.83379470401336
 30
0.0
 10
17.46631998816457
 20
-98.15654220295396
 30
0.0
 10
17.2545021780727
 20
-98.45675510047877
 30
0.0
 10
17.02848839002122
 20
-98.73717622301275
 30
0.0
 10
16.78627548758564
 20
-98.99601844473052
 30
0.0
 10
16.52523135080624
 20
-99.22983852727641
 30
0.0
 10
16.25067779401275
 20
-99.44451123212784
 30
0.0
 10
15.96023733865199
 20
-99.63547894021897
 30
0.0
 10
15.65696590628883
 20
-99.80174022294571
 30
0.0
 10
15.34680157561672
 20
-99.95197107915374
 30
0.0
 10
15.02471146920282
 20
-100.0721845804248
 30
0.0
 10
14.69646604140731
 20
-100.1751761139381
 30
0.0
 10
14.35971441134448
 20
-100.2541996787368
 30
0.0
 10
14.01445755365492
 20
-100.3090428542848
 30
0.0
 10
13.66117098261156
 20
-100.3472806530702
 30
0.0
 10
13.42212233367755
 20
-100.3501677766548
 30
0.0
 10
13.30159982100958
 20
-100.3516233941215
 30
0.0
  0
SPLINE
  5
B4
330
1F
100
AcDbEntity
  8
0
  6
Continuous
 62
     7
370
    25
100
AcDbSpline
210
0.0
220
0.0
230
1.0
 70
     8
 71
     3
 72
    31
 73
    27
 74
     0
 42
0.000000001
 43
0.00000001
 40
0.0
 40
0.0
 40
0.0
 40
0.0
 40
0.0375547339216425
 40
0.0741878160847458
 40
0.1103348591230087
 40
0.1458477999052964
 40
0.1811363168418999
 40
0.2162901053339299
 40
0.2515551838894572
 40
0.2868447195329782
 40
0.3222441029706894
 40
0.3578025673465704
 40
0.3934801288398781
 40
0.4295365564295688
 40
0.4661372403467867
 40
0.5035481115926824
 40
0.542131208195034
 40
0.5818238844794079
 40
0.6234061334193668
 40
0.6677528985366813
 40
0.715032066375437
 40
0.7653050293926982
 40
0.8186592362026328
 40
0.875757036484442
 40
0.9361739823483375
 40
1.0
 40
1.0
 40
1.0
 40
1.0
 10
13.30159982100958
 20
-100.3516233941215
 30
0.0
 10
13.18279786424936
 20
-100.3499052772507
 30
0.0
 10
12.94810953608747
 20
-100.3465112087772
 30
0.0
 10
12.60044208876123
 20
-100.312316903271
 30
0.0
 10
12.26229638626419
 20
-100.2564841714157
 30
0.0
 10
11.9327985721411
 20
-100.1793337252533
 30
0.0
 10
11.61101683873175
 20
-100.0845237610773
 30
0.0
 10
11.3003285321546
 20
-99.96006536459589
 30
0.0
 10
10.99749660583369
 20
-99.81811372253306
 30
0.0
 10
10.70387541034332
 20
-99.65586315268871
 30
0.0
 10
10.42432574677663
 20
-99.46887493740165
 30
0.0
 10
10.15616876045372
 20
-99.26388582349341
 30
0.0
 10
9.905729997781155
 20
-99.03407324138153
 30
0.0
 10
9.675688982203404
 20
-98.77984221464683
 30
0.0
 10
9.45426244108323
 20
-98.51089175181923
 30
0.0
 10
9.253637441341391
 20
-98.21614049347909
 30
0.0
 10
9.06851871980463
 20
-97.9003492138041
 30
0.0
 10
8.896012612227846
 20
-97.56249163483135
 30
0.0
 10
8.742232475918607
 20
-97.1957388854936
 30
0.0
 10
8.609888558592592
 20
-96.79528027529066
 30
0.0
 10
8.503050489512418
 20
-96.35910362470155
 30
0.0
 10
8.410942270471798
 20
-95.890648178454
 30
0.0
 10
8.340265382402677
 20
-95.38701278113604
 30
0.0
 10
8.290578741157688
 20
-94.84877125356122
 30
0.0
 10
8.259582009171838
 20
-94.27589938303235
 30
0.0
 10
8.256002689460955
 20
-93.88294089741264
 30
0.0
 10
8.254163923573671
 20
-93.68107050950617
 30
0.0
  0
SPLINE
  5
B5
330
1F
100
AcDbEntity
  8
0
  6
Continuous
 62
     7
370
    25
100
AcDbSpline
210
0.0
220
0.0
230
1.0
 70
     8
 71
     3
 72
    31
 73
    27
 74
     0
 42
0.000000001
 43
0.00000001
 40
0.0
 40
0.0
 40
0.0
 40
0.0
 40
0.0642784855882957
 40
0.1248842413368813
 40
0.1821499559807211
 40
0.2356998882500606
 40
0.2858567166276373
 40
0.332814715644013
 40
0.3767657092109681
 40
0.4179435664233
 40
0.4572247842882679
 40
0.495391177331011
 40
0.5325329610433777
 40
0.5692943705738204
 40
0.605289946372581
 40
0.6409210918700387
 40
0.6764332951937081
 40
0.7121579042070484
 40
0.747765897233697
 40
0.783341653062064
 40
0.8186990390165237
 40
0.8540198987360726
 40
0.8898086849463989
 40
0.9259087012000533
 40
0.9624941242486174
 40
1.0
 40
1.0
 40
1.0
 40
1.0
 10
8.254163923573671
 20
-93.68107050950617
 30
0.0
 10
8.255890874576322
 20
-93.47749403753294
 30
0.0
 10
8.259246102438611
 20
-93.08197300084801
 30
0.0
 10
8.291642754987333
 20
-92.50592521391394
 30
0.0
 10
8.336611394588653
 20
-91.96474866750363
 30
0.0
 10
8.409410606416763
 20
-91.45997902460348
 30
0.0
 10
8.496593060447822
 20
-90.99070069999195
 30
0.0
 10
8.60566025960906
 20
-90.55717140525633
 30
0.0
 10
8.734428977623205
 20
-90.15880364772126
 30
0.0
 10
8.885830325389485
 20
-89.79457993692878
 30
0.0
 10
9.056012938465605
 20
-89.45944620291792
 30
0.0
 10
9.237786326819116
 20
-89.14501396448867
 30
0.0
 10
9.441030510206403
 20
-88.85366287901857
 30
0.0
 10
9.658404074842144
 20
-88.58146560532627
 30
0.0
 10
9.89414811817505
 20
-88.33159227028332
 30
0.0
 10
10.14312348024272
 20
-88.10048460941377
 30
0.0
 10
10.41274350905165
 20
-87.89535235832426
 30
0.0
 10
10.69360429527597
 20
-87.70618680077362
 30
0.0
 10
10.98993371426197
 20
-87.54174642545435
 30
0.0
 10
11.2945805939641
 20
-87.39626725537897
 30
0.0
 10
11.6083350096561
 20
-87.273757798206
 30
0.0
 10
11.93084481055025
 20
-87.17465433199465
 30
0.0
 10
12.26121665225714
 20
-87.095247656031
 30
0.0
 10
12.60046185753322
 20
-87.0397561820966
 30
0.0
 10
12.94810442036228
 20
-87.00542548998935
 30
0.0
 10
13.18279614494281
 20
-87.0020500365593
 30
0.0
 10
13.30159982100958
 20
-87.00034134283949
 30
0.0
  0
SPLINE
  5
B6
330
1F
100
AcDbEntity
  8
0
  6
Continuous
 62
     7
370
    25
100
AcDbSpline
210
0.0
220
0.0
230
1.0
 70
     8
 71
     3
 72
    31
 73
    27
 74
     0
 42
0.000000001
 43
0.00000001
 40
0.0
 40
0.0
 40
0.0
 40
0.0
 40
0.0377177824484037
 40
0.0745207773621849
 40
0.1108378519324764
 40
0.1468390859503156
 40
0.1823672473366479
 40
0.2179192118598489
 40
0.2536728632281693
 40
0.2895711453208735
 40
0.325435044430432
 40
0.3617627937860576
 40
0.3980371378013574
 40
0.4346596306606076
 40
0.4722285283926728
 40
0.5105333031038022
 40
0.5499671037403271
 40
0.590701485002071
 40
0.6330272672789232
 40
0.6774473396045555
 40
0.7242077661673886
 40
0.7735731703211243
 40
0.825694908092012
 40
0.8809381762396262
 40
0.9389228063346189
 40
1.0
 40
1.0
 40
1.0
 40
1.0
 10
13.30159982100958
 20
-87.00034134283949
 30
0.0
 10
13.42209842564255
 20
-87.00205079649903
 30
0.0
 10
13.6601731242437
 20
-87.0054282436156
 30
0.0
 10
14.01289086561416
 20
-87.0397596306663
 30
0.0
 10
14.35721453268466
 20
-87.09524010273307
 30
0.0
 10
14.69265445402669
 20
-87.17466838176372
 30
0.0
 10
15.02028077463382
 20
-87.27368209404514
 30
0.0
 10
15.33896458078886
 20
-87.39644049483508
 30
0.0
 10
15.6496399066249
 20
-87.54110444778001
 30
0.0
 10
15.94923907881338
 20
-87.70947032736443
 30
0.0
 10
16.23899122543225
 20
-87.8977371065273
 30
0.0
 10
16.51249429990352
 20
-88.11109022121052
 30
0.0
 10
16.77014663846123
 20
-88.34665982019703
 30
0.0
 10
17.01419397408416
 20
-88.60197904644343
 30
0.0
 10
17.23912617303064
 20
-88.88261490777018
 30
0.0
 10
17.45156739002623
 20
-89.18374181076508
 30
0.0
 10
17.64726492055369
 20
-89.50795218198631
 30
0.0
 10
17.82855968595172
 20
-89.85489823789416
 30
0.0
 10
17.99304099508781
 20
-90.22779539701902
 30
0.0
 10
18.13229440120324
 20
-90.63130930747045
 30
0.0
 10
18.24839256195795
 20
-91.0652321446918
 30
0.0
 10
18.34441860669783
 20
-91.52908751197005
 30
0.0
 10
18.42130757677423
 20
-92.02399845829758
 30
0.0
 10
18.47240006495152
 20
-92.54980419075419
 30
0.0
 10
18.50720814680933
 20
-93.10564105526188
 30
0.0
 10
18.510280270885
 20
-93.48596776763556
 30
0.0
 10
18.51185623126598
 20
-93.68107050950617
 30
0.0
  0
SPLINE
  5
B7
330
1F
100
AcDbEntity
  8
0
  6
Continuous
 62
     7
370
    25
100
AcDbSpline
210
0.0
220
0.0
230
1.0
 70
     8
 71
     3
 72
    23
 73
    19
 74
     0
 42
0.000000001
 43
0.00000001
 40
0.0
 40
0.0
 40
0.0
 40
0.0
 40
0.0568155721686677
 40
0.1121227043635698
 40
0.1668227269735987
 40
0.2220963057990682
 40
0.2789336422175919
 40
0.3368754517250784
 40
0.3978515565239454
 40
0.4620390983845876
 40
0.5276558516003218
 40
0.5923161346088035
 40
0.6572245979447234
 40
0.7226974727024488
 40
0.7892244270772585
 40
0.8571655146102248
 40
0.9276595053591098
 40
0.9999999999999999
 40
0.9999999999999999
 40
0.9999999999999999
 40
0.9999999999999999
 10
2.78339469280444
 20
-90.87750480437795
 30
0.0
 10
2.780303881954131
 20
-90.79083993108951
 30
0.0
 10
2.774204320548957
 20
-90.61981111635576
 30
0.0
 10
2.730408603100944
 20
-90.36823834798322
 30
0.0
 10
2.655109274848733
 20
-90.12712172055376
 30
0.0
 10
2.552948047859787
 20
-89.89351896432305
 30
0.0
 10
2.42031165574645
 20
-89.66990849878302
 30
0.0
 10
2.257471175889142
 20
-89.4562757938967
 30
0.0
 10
2.065052731901987
 20
-89.25341000961465
 30
0.0
 10
1.848765567309637
 20
-89.05814784011699
 30
0.0
 10
1.608640304688399
 20
-88.88344968203448
 30
0.0
 10
1.35599490544499
 20
-88.72527327293376
 30
0.0
 10
1.087281884758639
 20
-88.59643744842957
 30
0.0
 10
0.8064920947501236
 20
-88.4892283977654
 30
0.0
 10
0.5131074273754633
 20
-88.40443146446424
 30
0.0
 10
0.2055132844166209
 20
-88.34693005552214
 30
0.0
 10
-0.1142769929705872
 20
-88.31053210723633
 30
0.0
 10
-0.332144642311312
 20
-88.30546948184201
 30
0.0
 10
-0.4424867174519717
 20
-88.3029054454036
 30
0.0
  0
SPLINE
  5
B8
330
1F
100
AcDbEntity
  8
0
  6
Continuous
 62
     7
370
    25
100
AcDbSpline
210
0.0
220
0.0
230
1.0
 70
     8
 71
     3
 72
    23
 73
    19
 74
     0
 42
0.000000001
 43
0.00000001
 40
0.0
 40
0.0
 40
0.0
 40
0.0
 40
0.0693871918249051
 40
0.1365722429923054
 40
0.2009951935038467
 40
0.2639866122632261
 40
0.3250031185530769
 40
0.3856722615036737
 40
0.4460875221452462
 40
0.5065218609559503
 40
0.566376929926088
 40
0.6255172601700729
 40
0.6843557689771047
 40
0.7437446481255312
 40
0.8044897488559657
 40
0.8672346408614711
 40
0.9320698263584543
 40
1.0
 40
1.0
 40
1.0
 40
1.0
 10
-0.4424867174519717
 20
-88.3029054454036
 30
0.0
 10
-0.5587438000575087
 20
-88.30554213552237
 30
0.0
 10
-0.7875683153260595
 20
-88.31073183515029
 30
0.0
 10
-1.123000609091102
 20
-88.34579543228672
 30
0.0
 10
-1.443399048766601
 20
-88.40791685982734
 30
0.0
 10
-1.74840315436478
 20
-88.4907839583185
 30
0.0
 10
-2.038899409382548
 20
-88.598563243321
 30
0.0
 10
-2.314469933104907
 20
-88.73066917230204
 30
0.0
 10
-2.574376838693122
 20
-88.88948714821011
 30
0.0
 10
-2.818305416214622
 20
-89.0694868548031
 30
0.0
 10
-3.042885692698218
 20
-89.27005206512958
 30
0.0
 10
-3.243037558161846
 20
-89.49180680053041
 30
0.0
 10
-3.413007248832784
 20
-89.7362617437472
 30
0.0
 10
-3.562469523714904
 20
-89.9967293408923
 30
0.0
 10
-3.684622703583045
 20
-90.27845987275815
 30
0.0
 10
-3.780523523449784
 20
-90.57945273244248
 30
0.0
 10
-3.853219802340759
 20
-90.8994851068607
 30
0.0
 10
-3.879036875921999
 20
-91.1205602726876
 30
0.0
 10
-3.892246332836587
 20
-91.23367467617283
 30
0.0
  0
LINE
  5
B9
330
1F
100
AcDbEntity
  8
0
  6
Continuous
 62
     7
370
    25
100
AcDbLine
 10
-3.8922463328
 20
-91.2336746762
 30
0.0
 11
-5.3576309482
 21
-91.2336746762
 31
0.0
  0
SPLINE
  5
BA
330
1F
100
AcDbEntity
  8
0
  6
Continuous
 62
     7
370
    25
100
AcDbSpline
210
0.0
220
0.0
230
1.0
 70
     8
 71
     3
 72
    23
 73
    19
 74
     0
 42
0.000000001
 43
0.00000001
 40
0.0
 40
0.0
 40
0.0
 40
0.0
 40
0.0624595019706428
 40
0.122908837919722
 40
0.1816789252333547
 40
0.2401525926561274
 40
0.298253608616607
 40
0.3572605892586156
 40
0.4177149858893305
 40
0.4800980320137075
 40
0.5434871171908064
 40
0.6058936981674253
 40
0.6684706421132327
 40
0.7319378633808535
 40
0.7960381993776416
 40
0.8616927542954174
 40
0.929644407692737
 40
0.9999999999999999
 40
0.9999999999999999
 40
0.9999999999999999
 40
0.9999999999999999
 10
-5.357630948221205
 20
-91.23367467617283
 30
0.0
 10
-5.348976591069799
 20
-91.08238877703843
 30
0.0
 10
-5.331946404359034
 20
-90.78468589005435
 30
0.0
 10
-5.251515194762447
 20
-90.35043252528278
 30
0.0
 10
-5.128649065099466
 20
-89.93683371999174
 30
0.0
 10
-4.963291453805748
 20
-89.5441704400736
 30
0.0
 10
-4.754176322116185
 20
-89.17264724733018
 30
0.0
 10
-4.507854568447408
 20
-88.81850146023045
 30
0.0
 10
-4.211674293653503
 20
-88.49072700090944
 30
0.0
 10
-3.879812039145105
 20
-88.18381770514779
 30
0.0
 10
-3.516355880272937
 20
-87.90708331609213
 30
0.0
 10
-3.129982872352319
 20
-87.66238187270385
 30
0.0
 10
-2.720158734711581
 20
-87.45887687233831
 30
0.0
 10
-2.290340419786006
 20
-87.29068109408026
 30
0.0
 10
-1.839554252366358
 20
-87.16110745162577
 30
0.0
 10
-1.369223358041572
 20
-87.06661341885852
 30
0.0
 10
-0.8772378627813978
 20
-87.00964067383084
 30
0.0
 10
-0.5418575481149538
 20
-87.00347683139219
 30
0.0
 10
-0.3712527430929993
 20
-87.00034134283949
 30
0.0
  0
SPLINE
  5
BB
330
1F
100
AcDbEntity
  8
0
  6
Continuous
 62
     7
370
    25
100
AcDbSpline
210
0.0
220
0.0
230
1.0
 70
     8
 71
     3
 72
    23
 73
    19
 74
     0
 42
0.000000001
 43
0.00000001
 40
0.0
 40
0.0
 40
0.0
 40
0.0
 40
0.0755439683563403
 40
0.148052579828525
 40
0.2172230472500468
 40
0.2845778397014355
 40
0.3497896569535858
 40
0.4140797655511758
 40
0.4775402308613227
 40
0.54125791145125
 40
0.6038185100294691
 40
0.6635800461115808
 40
0.7211192641074529
 40
0.7772645163935684
 40
0.8323510444172669
 40
0.8875021962795346
 40
0.9431049193542931
 40
1.0
 40
1.0
 40
1.0
 40
1.0
 10
-0.3712527430929994
 20
-87.0003413428395
 30
0.0
 10
-0.203209620185507
 20
-87.00366838486296
 30
0.0
 10
0.1261246524269811
 20
-87.01018878835104
 30
0.0
 10
0.6070512212760516
 20
-87.06386563512478
 30
0.0
 10
1.063429728824969
 20
-87.1543013459946
 30
0.0
 10
1.496700424673507
 20
-87.2734188017103
 30
0.0
 10
1.90416634261901
 20
-87.4359556615203
 30
0.0
 10
2.28636689384491
 20
-87.63225563147302
 30
0.0
 10
2.64635516610866
 20
-87.86137995433457
 30
0.0
 10
2.973463015533187
 20
-88.1291627388673
 30
0.0
 10
3.272194297149703
 20
-88.41603435464573
 30
0.0
 10
3.533838659259085
 20
-88.71963252924785
 30
0.0
 10
3.753565380284666
 20
-89.03736195394796
 30
0.0
 10
3.937293482622255
 20
-89.36573545096904
 30
0.0
 10
4.073358830734758
 20
-89.710713644698
 30
0.0
 10
4.177919494259555
 20
-90.06505495239287
 30
0.0
 10
4.236483496859848
 20
-90.4345916954825
 30
0.0
 10
4.244649434730688
 20
-90.68481171607591
 30
0.0
 10
4.248779308189052
 20
-90.81135897104461
 30
0.0
  0
SPLINE
  5
BC
330
1F
100
AcDbEntity
  8
0
  6
Continuous
 62
     7
370
    25
100
AcDbSpline
210
0.0
220
0.0
230
1.0
 70
     8
 71
     3
 72
    23
 73
    19
 74
     0
 42
0.000000001
 43
0.00000001
 40
0.0
 40
0.0
 40
0.0
 40
0.0
 40
0.0471936987874529
 40
0.094164602655024
 40
0.1407647004900438
 40
0.1876065867987886
 40
0.2347682166576791
 40
0.2820665224194506
 40
0.3304755998546326
 40
0.3798501485218765
 40
0.4327989293930763
 40
0.4929901260461264
 40
0.559928266551834
 40
0.6337073023934483
 40
0.7143972929783715
 40
0.8023698899558022
 40
0.897665503342573
 40
1.0
 40
1.0
 40
1.0
 40
1.0
 10
4.248779308189052
 20
-90.81135897104461
 30
0.0
 10
4.24657240831814
 20
-90.90045910930684
 30
0.0
 10
4.242169027045146
 20
-91.0782387564109
 30
0.0
 10
4.214426090308552
 20
-91.3429681991487
 30
0.0
 10
4.164511560629325
 20
-91.6034876588498
 30
0.0
 10
4.100513483318683
 20
-91.86149232690983
 30
0.0
 10
4.008810874709408
 20
-92.11236603692095
 30
0.0
 10
3.905127462963834
 20
-92.36150574310919
 30
0.0
 10
3.780299967273137
 20
-92.60572241242676
 30
0.0
 10
3.631714606366975
 20
-92.84867893156172
 30
0.0
 10
3.457028893778179
 20
-93.10114077894137
 30
0.0
 10
3.247823838417113
 20
-93.36934833897666
 30
0.0
 10
3.00303853696986
 20
-93.6592329240157
 30
0.0
 10
2.722455067907851
 20
-93.96920464233122
 30
0.0
 10
2.406657084690317
 20
-94.30067806881218
 30
0.0
 10
2.051626819500682
 20
-94.65050807223804
 30
0.0
 10
1.663441170790901
 20
-95.02484697949915
 30
0.0
 10
1.388923573223224
 20
-95.27761106502525
 30
0.0
 10
1.24677610306085
 20
-95.40849438771129
 30
0.0
  0
LINE
  5
BD
330
1F
100
AcDbEntity
  8
0
  6
Continuous
 62
     7
370
    25
100
AcDbLine
 10
1.2467761031
 20
-95.4084943877
 30
0.0
 11
-2.4090532239
 21
-98.7234182659
 31
0.0
  0
LINE
  5
BE
330
1F
100
AcDbEntity
  8
0
  6
Continuous
 62
     7
370
    25
100
AcDbLine
 10
-2.4090532239
 20
-98.7234182659
 30
0.0
 11
4.411599821
 21
-98.7234182659
 31
0.0
  0
LINE
  5
BF
330
1F
100
AcDbEntity
  8
0
  6
Continuous
 62
     7
370
    25
100
AcDbLine
 10
4.411599821
 20
-98.7234182659
 30
0.0
 11
4.411599821
 21
-100.0259823685
 31
0.0
  0
LINE
  5
C0
330
1F
100
AcDbEntity
  8
0
  6
Continuous
 62
     7
370
    25
100
AcDbLine
 10
4.411599821
 20
-100.0259823685
 30
0.0
 11
-5.8460924867
 21
-100.0259823685
 31
0.0
  0
LINE
  5
C1
330
1F
100
AcDbEntity
  8
0
  6
Continuous
 62
     7
370
    25
100
AcDbLine
 10
-5.8460924867
 20
-100.0259823685
 30
0.0
 11
-0.0456117175
 21
-94.769932689
 31
0.0
  0
SPLINE
  5
C2
330
1F
100
AcDbEntity
  8
0
  6
Continuous
 62
     7
370
    25
100
AcDbSpline
210
0.0
220
0.0
230
1.0
 70
     8
 71
     3
 72
    19
 73
    15
 74
     0
 42
0.000000001
 43
0.00000001
 40
0.0
 40
0.0
 40
0.0
 40
0.0
 40
0.1140913523990306
 40
0.2190328984669214
 40
0.3144706496804019
 40
0.4011753789115336
 40
0.4788180200727835
 40
0.5470772481369826
 40
0.6067850671568067
 40
0.6576765714182379
 40
0.7476816539704867
 40
0.8336349133073475
 40
0.916625251321592
 40
1.0
 40
1.0
 40
1.0
 40
1.0
 10
-0.0456117174519738
 20
-94.76993268899334
 30
0.0
 10
0.0954277735589054
 20
-94.644727586005
 30
0.0
 10
0.3661957841471878
 20
-94.40435847797252
 30
0.0
 10
0.750695845668565
 20
-94.05445481396958
 30
0.0
 10
1.094097719342157
 20
-93.72691839032659
 30
0.0
 10
1.403620628343529
 20
-93.42913877501402
 30
0.0
 10
1.669182546543831
 20
-93.15099922494062
 30
0.0
 10
1.900801083692219
 20
-92.90217783687748
 30
0.0
 10
2.091478594483338
 20
-92.67607874057848
 30
0.0
 10
2.293901698641303
 20
-92.41320774129578
 30
0.0
 10
2.488876052986446
 20
-92.09124762549722
 30
0.0
 10
2.659894396047719
 20
-91.69759416924083
 30
0.0
 10
2.764518255925143
 20
-91.29078694579788
 30
0.0
 10
2.777092862027557
 20
-91.01547756560352
 30
0.0
 10
2.783394692804441
 20
-90.87750480437796
 30
0.0
  0
LINE
  5
C3
330
1F
100
AcDbEntity
  8
0
  6
Continuous
 62
     7
370
    25
100
AcDbLine
 10
-9.6886565892
 20
-100.0259823685
 30
0.0
 11
-18.3181437687
 21
-100.0259823685
 31
0.0
  0
LINE
  5
C4
330
1F
100
AcDbEntity
  8
0
  6
Continuous
 62
     7
370
    25
100
AcDbLine
 10
-18.3181437687
 20
-100.0259823685
 30
0.0
 11
-18.3181437687
 21
-87.3259823685
 31
0.0
  0
LINE
  5
C5
330
1F
100
AcDbEntity
  8
0
  6
Continuous
 62
     7
370
    25
100
AcDbLine
 10
-18.3181437687
 20
-87.3259823685
 30
0.0
 11
-9.6886565892
 21
-87.3259823685
 31
0.0
  0
LINE
  5
C6
330
1F
100
AcDbEntity
  8
0
  6
Continuous
 62
     7
370
    25
100
AcDbLine
 10
-9.6886565892
 20
-87.3259823685
 30
0.0
 11
-9.6886565892
 21
-88.628546471
 31
0.0
  0
LINE
  5
C7
330
1F
100
AcDbEntity
  8
0
  6
Continuous
 62
     7
370
    25
100
AcDbLine
 10
-9.6886565892
 20
-88.628546471
 30
0.0
 11
-16.8527591533
 21
-88.628546471
 31
0.0
  0
LINE
  5
C8
330
1F
100
AcDbEntity
  8
0
  6
Continuous
 62
     7
370
    25
100
AcDbLine
 10
-16.8527591533
 20
-88.628546471
 30
0.0
 11
-16.8527591533
 21
-92.5362387787
 31
0.0
  0
LINE
  5
C9
330
1F
100
AcDbEntity
  8
0
  6
Continuous
 62
     7
370
    25
100
AcDbLine
 10
-16.8527591533
 20
-92.5362387787
 30
0.0
 11
-9.6886565892
 21
-92.5362387787
 31
0.0
  0
LINE
  5
CA
330
1F
100
AcDbEntity
  8
0
  6
Continuous
 62
     7
370
    25
100
AcDbLine
 10
-9.6886565892
 20
-92.5362387787
 30
0.0
 11
-9.6886565892
 21
-93.8388028813
 31
0.0
  0
LINE
  5
CB
330
1F
100
AcDbEntity
  8
0
  6
Continuous
 62
     7
370
    25
100
AcDbLine
 10
-9.6886565892
 20
-93.8388028813
 30
0.0
 11
-16.8527591533
 21
-93.8388028813
 31
0.0
  0
LINE
  5
CC
330
1F
100
AcDbEntity
  8
0
  6
Continuous
 62
     7
370
    25
100
AcDbLine
 10
-16.8527591533
 20
-93.8388028813
 30
0.0
 11
-16.8527591533
 21
-98.7234182659
 31
0.0
  0
LINE
  5
CD
330
1F
100
AcDbEntity
  8
0
  6
Continuous
 62
     7
370
    25
100
AcDbLine
 10
-16.8527591533
 20
-98.7234182659
 30
0.0
 11
-9.6886565892
 21
-98.7234182659
 31
0.0
  0
LINE
  5
CE
330
1F
100
AcDbEntity
  8
0
  6
Continuous
 62
     7
370
    25
100
AcDbLine
 10
-9.6886565892
 20
-98.7234182659
 30
0.0
 11
-9.6886565892
 21
-100.0259823685
 31
0.0
  0
LINE
  5
CF
330
1F
100
AcDbEntity
  8
0
  6
Continuous
 62
     7
370
    25
100
AcDbLine
 10
-46.3558360764
 20
-100.0259823685
 30
0.0
 11
-47.8212206918
 21
-100.0259823685
 31
0.0
  0
LINE
  5
D0
330
1F
100
AcDbEntity
  8
0
  6
Continuous
 62
     7
370
    25
100
AcDbLine
 10
-47.8212206918
 20
-100.0259823685
 30
0.0
 11
-47.8212206918
 21
-87.3259823685
 31
0.0
  0
LINE
  5
D1
330
1F
100
AcDbEntity
  8
0
  6
Continuous
 62
     7
370
    25
100
AcDbLine
 10
-47.8212206918
 20
-87.3259823685
 30
0.0
 11
-44.8141293457
 21
-87.3259823685
 31
0.0
  0
SPLINE
  5
D2
330
1F
100
AcDbEntity
  8
0
  6
Continuous
 62
     7
370
    25
100
AcDbSpline
210
0.0
220
0.0
230
1.0
 70
     8
 71
     3
 72
    15
 73
    11
 74
     0
 42
0.000000001
 43
0.00000001
 40
0.0
 40
0.0
 40
0.0
 40
0.0
 40
0.1764538028289428
 40
0.3387754432934866
 40
0.4855147197805824
 40
0.618142461963074
 40
0.7352696287974541
 40
0.8383398533730907
 40
0.9260705852842285
 40
1.0
 40
1.0
 40
1.0
 40
1.0
 10
-44.8141293456571
 20
-87.32598236848052
 30
0.0
 10
-44.61314882213505
 20
-87.326546907834
 30
0.0
 10
-44.22728427935985
 20
-87.32763077265679
 30
0.0
 10
-43.67426740562181
 20
-87.33367675655657
 30
0.0
 10
-43.17147378988157
 20
-87.35103017583343
 30
0.0
 10
-42.72005172495045
 20
-87.36577702573167
 30
0.0
 10
-42.31908489628689
 20
-87.39331750967364
 30
0.0
 10
-41.9692489242182
 20
-87.41862625453771
 30
0.0
 10
-41.66957492499986
 20
-87.45355507874379
 30
0.0
 10
-41.48807656279264
 20
-87.48472481366902
 30
0.0
 10
-41.40507485847762
 20
-87.4989791633523
 30
0.0
  0
SPLINE
  5
D3
330
1F
100
AcDbEntity
  8
0
  6
Continuous
 62
     7
370
    25
100
AcDbSpline
210
0.0
220
0.0
230
1.0
 70
     8
 71
     3
 72
    23
 73
    19
 74
     0
 42
0.000000001
 43
0.00000001
 40
0.0
 40
0.0
 40
0.0
 40
0.0
 40
0.0697760268696244
 40
0.137559891839175
 40
0.2030322835421521
 40
0.2674973146315088
 40
0.3305978635459437
 40
0.392950294161318
 40
0.4549286493760216
 40
0.5172743798716748
 40
0.578545472454781
 40
0.6386069291871517
 40
0.6975261262896991
 40
0.7560944978896431
 40
0.8151718296009361
 40
0.874821511250789
 40
0.9366176131885126
 40
1.0
 40
1.0
 40
1.0
 40
1.0
 10
-41.40507485847762
 20
-87.4989791633523
 30
0.0
 10
-41.29527722104848
 20
-87.52192635548498
 30
0.0
 10
-41.07881675738277
 20
-87.56716557888875
 30
0.0
 10
-40.76625933488989
 20
-87.66225454638065
 30
0.0
 10
-40.46914996438376
 20
-87.77521732768989
 30
0.0
 10
-40.18622072322104
 20
-87.90325797283248
 30
0.0
 10
-39.92094767355206
 20
-88.05494714714771
 30
0.0
 10
-39.67083512351542
 20
-88.22313441888944
 30
0.0
 10
-39.43502396498444
 20
-88.4092298870084
 30
0.0
 10
-39.21872113985072
 20
-88.61489162477301
 30
0.0
 10
-39.01779328120622
 20
-88.831792946182
 30
0.0
 10
-38.84863952159385
 20
-89.0675945339345
 30
0.0
 10
-38.70111549203295
 20
-89.31230995427649
 30
0.0
 10
-38.58423973784367
 20
-89.57151636889567
 30
0.0
 10
-38.49249295521893
 20
-89.84169101516422
 30
0.0
 10
-38.42617699864672
 20
-90.12445612428692
 30
0.0
 10
-38.38408770449316
 20
-90.41914904376108
 30
0.0
 10
-38.37980130632099
 20
-90.6204105423865
 30
0.0
 10
-38.3776309482212
 20
-90.7223165030959
 30
0.0
  0
SPLINE
  5
D4
330
1F
100
AcDbEntity
  8
0
  6
Continuous
 62
     7
370
    25
100
AcDbSpline
210
0.0
220
0.0
230
1.0
 70
     8
 71
     3
 72
    31
 73
    27
 74
     0
 42
0.000000001
 43
0.00000001
 40
0.0
 40
0.0
 40
0.0
 40
0.0
 40
0.0362682444588854
 40
0.071614241078259
 40
0.1063076853479137
 40
0.1401691846019405
 40
0.1742278191938295
 40
0.2077837719407807
 40
0.2420083264608917
 40
0.2763436737712358
 40
0.311031551205735
 40
0.345813943667785
 40
0.381125320388872
 40
0.4169381062866982
 40
0.453761199124087
 40
0.4913678681816909
 40
0.5303661020737828
 40
0.5706104743932426
 40
0.6129333560678822
 40
0.6582813503790426
 40
0.706624956347935
 40
0.7582400317988085
 40
0.813516610802207
 40
0.8721883952566016
 40
0.9343289021277628
 40
0.9999999999999999
 40
0.9999999999999999
 40
0.9999999999999999
 40
0.9999999999999999
 10
-38.37763094822121
 20
-90.72231650309591
 30
0.0
 10
-38.38001188241429
 20
-90.80801284639017
 30
0.0
 10
-38.38471320716373
 20
-90.97722640165767
 30
0.0
 10
-38.40924915406813
 20
-91.2276171071996
 30
0.0
 10
-38.45564448453334
 20
-91.46903321400039
 30
0.0
 10
-38.51914596703067
 20
-91.7034077233804
 30
0.0
 10
-38.60369746494656
 20
-91.9281283469202
 30
0.0
 10
-38.70327883414461
 20
-92.14750543405884
 30
0.0
 10
-38.8227455940064
 20
-92.35756209275355
 30
0.0
 10
-38.96028494831507
 20
-92.55952598441645
 30
0.0
 10
-39.11650752290888
 20
-92.74893649134756
 30
0.0
 10
-39.28381900674139
 20
-92.93185565173675
 30
0.0
 10
-39.47065829435316
 20
-93.09890403337185
 30
0.0
 10
-39.67222766101762
 20
-93.25575507351016
 30
0.0
 10
-39.89195419558307
 20
-93.39618405859262
 30
0.0
 10
-40.12400982222543
 20
-93.53073747546419
 30
0.0
 10
-40.37382722752682
 20
-93.64906706832626
 30
0.0
 10
-40.64018313580215
 20
-93.75727741786353
 30
0.0
 10
-40.92786317241401
 20
-93.85077610502323
 30
0.0
 10
-41.23803044148028
 20
-93.93601622028608
 30
0.0
 10
-41.57520551254826
 20
-94.00225766566534
 30
0.0
 10
-41.93728559362815
 20
-94.06182474252762
 30
0.0
 10
-42.3261667063484
 20
-94.10657692334556
 30
0.0
 10
-42.74111154255252
 20
-94.1392478345936
 30
0.0
 10
-43.18147990172294
 20
-94.15980798964355
 30
0.0
 10
-43.48355767474271
 20
-94.16287040308603
 30
0.0
 10
-43.63876876873403
 20
-94.16444390694205
 30
0.0
  0
LINE
  5
D5
330
1F
100
AcDbEntity
  8
0
  6
Continuous
 62
     7
370
    25
100
AcDbLine
 10
-43.6387687687
 20
-94.1644439069
 30
0.0
 11
-38.2148104354
 21
-100.0259823685
 31
0.0
  0
LINE
  5
D6
330
1F
100
AcDbEntity
  8
0
  6
Continuous
 62
     7
370
    25
100
AcDbLine
 10
-38.2148104354
 20
-100.0259823685
 30
0.0
 11
-40.0719819098
 21
-100.0259823685
 31
0.0
  0
LINE
  5
D7
330
1F
100
AcDbEntity
  8
0
  6
Continuous
 62
     7
370
    25
100
AcDbLine
 10
-40.0719819098
 20
-100.0259823685
 30
0.0
 11
-45.4959402431
 21
-94.1644439069
 31
0.0
  0
LINE
  5
D8
330
1F
100
AcDbEntity
  8
0
  6
Continuous
 62
     7
370
    25
100
AcDbLine
 10
-45.4959402431
 20
-94.1644439069
 30
0.0
 11
-46.3558360764
 21
-94.1644439069
 31
0.0
  0
LINE
  5
D9
330
1F
100
AcDbEntity
  8
0
  6
Continuous
 62
     7
370
    25
100
AcDbLine
 10
-46.3558360764
 20
-94.1644439069
 30
0.0
 11
-46.3558360764
 21
-100.0259823685
 31
0.0
  0
LINE
  5
DA
330
1F
100
AcDbEntity
  8
0
  6
Continuous
 62
     7
370
    25
100
AcDbLine
 10
16.9162152056
 20
-55.6926490351
 30
0.0
 11
16.9162152056
 21
-44.2952131377
 31
0.0
  0
LINE
  5
DB
330
1F
100
AcDbEntity
  8
0
  6
Continuous
 62
     7
370
    25
100
AcDbLine
 10
16.9162152056
 20
-44.2952131377
 30
0.0
 11
13.4969844364
 21
-44.2952131377
 31
0.0
  0
LINE
  5
DC
330
1F
100
AcDbEntity
  8
0
  6
Continuous
 62
     7
370
    25
100
AcDbLine
 10
13.4969844364
 20
-44.2952131377
 30
0.0
 11
13.4969844364
 21
-42.9926490351
 31
0.0
  0
LINE
  5
DD
330
1F
100
AcDbEntity
  8
0
  6
Continuous
 62
     7
370
    25
100
AcDbLine
 10
13.4969844364
 20
-42.9926490351
 30
0.0
 11
21.8008305902
 21
-42.9926490351
 31
0.0
  0
LINE
  5
DE
330
1F
100
AcDbEntity
  8
0
  6
Continuous
 62
     7
370
    25
100
AcDbLine
 10
21.8008305902
 20
-42.9926490351
 30
0.0
 11
21.8008305902
 21
-44.2952131377
 31
0.0
  0
LINE
  5
DF
330
1F
100
AcDbEntity
  8
0
  6
Continuous
 62
     7
370
    25
100
AcDbLine
 10
21.8008305902
 20
-44.2952131377
 30
0.0
 11
18.381599821
 21
-44.2952131377
 31
0.0
  0
LINE
  5
E0
330
1F
100
AcDbEntity
  8
0
  6
Continuous
 62
     7
370
    25
100
AcDbLine
 10
18.381599821
 20
-44.2952131377
 30
0.0
 11
18.381599821
 21
-55.6926490351
 31
0.0
  0
LINE
  5
E1
330
1F
100
AcDbEntity
  8
0
  6
Continuous
 62
     7
370
    25
100
AcDbLine
 10
18.381599821
 20
-55.6926490351
 30
0.0
 11
16.9162152056
 21
-55.6926490351
 31
0.0
  0
LINE
  5
E2
330
1F
100
AcDbEntity
  8
0
  6
Continuous
 62
     7
370
    25
100
AcDbLine
 10
9.9800613595
 20
-55.6926490351
 30
0.0
 11
1.35057418
 21
-55.6926490351
 31
0.0
  0
LINE
  5
E3
330
1F
100
AcDbEntity
  8
0
  6
Continuous
 62
     7
370
    25
100
AcDbLine
 10
1.35057418
 20
-55.6926490351
 30
0.0
 11
1.35057418
 21
-42.9926490351
 31
0.0
  0
LINE
  5
E4
330
1F
100
AcDbEntity
  8
0
  6
Continuous
 62
     7
370
    25
100
AcDbLine
 10
1.35057418
 20
-42.9926490351
 30
0.0
 11
9.9800613595
 21
-42.9926490351
 31
0.0
  0
LINE
  5
E5
330
1F
100
AcDbEntity
  8
0
  6
Continuous
 62
     7
370
    25
100
AcDbLine
 10
9.9800613595
 20
-42.9926490351
 30
0.0
 11
9.9800613595
 21
-44.2952131377
 31
0.0
  0
LINE
  5
E6
330
1F
100
AcDbEntity
  8
0
  6
Continuous
 62
     7
370
    25
100
AcDbLine
 10
9.9800613595
 20
-44.2952131377
 30
0.0
 11
2.8159587954
 21
-44.2952131377
 31
0.0
  0
LINE
  5
E7
330
1F
100
AcDbEntity
  8
0
  6
Continuous
 62
     7
370
    25
100
AcDbLine
 10
2.8159587954
 20
-44.2952131377
 30
0.0
 11
2.8159587954
 21
-48.2029054454
 31
0.0
  0
LINE
  5
E8
330
1F
100
AcDbEntity
  8
0
  6
Continuous
 62
     7
370
    25
100
AcDbLine
 10
2.8159587954
 20
-48.2029054454
 30
0.0
 11
9.9800613595
 21
-48.2029054454
 31
0.0
  0
LINE
  5
E9
330
1F
100
AcDbEntity
  8
0
  6
Continuous
 62
     7
370
    25
100
AcDbLine
 10
9.9800613595
 20
-48.2029054454
 30
0.0
 11
9.9800613595
 21
-49.505469548
 31
0.0
  0
LINE
  5
EA
330
1F
100
AcDbEntity
  8
0
  6
Continuous
 62
     7
370
    25
100
AcDbLine
 10
9.9800613595
 20
-49.505469548
 30
0.0
 11
2.8159587954
 21
-49.505469548
 31
0.0
  0
LINE
  5
EB
330
1F
100
AcDbEntity
  8
0
  6
Continuous
 62
     7
370
    25
100
AcDbLine
 10
2.8159587954
 20
-49.505469548
 30
0.0
 11
2.8159587954
 21
-54.3900849326
 31
0.0
  0
LINE
  5
EC
330
1F
100
AcDbEntity
  8
0
  6
Continuous
 62
     7
370
    25
100
AcDbLine
 10
2.8159587954
 20
-54.3900849326
 30
0.0
 11
9.9800613595
 21
-54.3900849326
 31
0.0
  0
LINE
  5
ED
330
1F
100
AcDbEntity
  8
0
  6
Continuous
 62
     7
370
    25
100
AcDbLine
 10
9.9800613595
 20
-54.3900849326
 30
0.0
 11
9.9800613595
 21
-55.6926490351
 31
0.0
  0
SPLINE
  5
EE
330
1F
100
AcDbEntity
  8
0
  6
Continuous
 62
     7
370
    25
100
AcDbSpline
210
0.0
220
0.0
230
1.0
 70
     8
 71
     3
 72
    23
 73
    19
 74
     0
 42
0.000000001
 43
0.00000001
 40
0.0
 40
0.0
 40
0.0
 40
0.0
 40
0.0568155721686676
 40
0.11212270436357
 40
0.1668227269735993
 40
0.2220963057990682
 40
0.2789336422175926
 40
0.3368754517250792
 40
0.3978515565239451
 40
0.4620390983845885
 40
0.5276558516003226
 40
0.5923161346088017
 40
0.657224597944723
 40
0.7226974727024471
 40
0.7892244270772583
 40
0.8571655146102248
 40
0.9276595053591098
 40
0.9999999999999999
 40
0.9999999999999999
 40
0.9999999999999999
 40
0.9999999999999999
 10
45.08416392357367
 20
-90.87750480437795
 30
0.0
 10
45.08107311272337
 20
-90.7908399310895
 30
0.0
 10
45.07497355131819
 20
-90.61981111635576
 30
0.0
 10
45.03117783387019
 20
-90.36823834798322
 30
0.0
 10
44.95587850561795
 20
-90.12712172055377
 30
0.0
 10
44.85371727862903
 20
-89.89351896432304
 30
0.0
 10
44.72108088651569
 20
-89.66990849878303
 30
0.0
 10
44.55824040665837
 20
-89.45627579389671
 30
0.0
 10
44.36582196267121
 20
-89.25341000961464
 30
0.0
 10
44.14953479807886
 20
-89.05814784011697
 30
0.0
 10
43.90940953545762
 20
-88.88344968203448
 30
0.0
 10
43.65676413621422
 20
-88.72527327293378
 30
0.0
 10
43.38805111552787
 20
-88.59643744842958
 30
0.0
 10
43.10726132551937
 20
-88.4892283977654
 30
0.0
 10
42.81387665814469
 20
-88.40443146446422
 30
0.0
 10
42.50628251518585
 20
-88.34693005552215
 30
0.0
 10
42.18649223779864
 20
-88.3105321072363
 30
0.0
 10
41.96862458845791
 20
-88.30546948184201
 30
0.0
 10
41.85828251331726
 20
-88.3029054454036
 30
0.0
  0
SPLINE
  5
EF
330
1F
100
AcDbEntity
  8
0
  6
Continuous
 62
     7
370
    25
100
AcDbSpline
210
0.0
220
0.0
230
1.0
 70
     8
 71
     3
 72
    23
 73
    19
 74
     0
 42
0.000000001
 43
0.00000001
 40
0.0
 40
0.0
 40
0.0
 40
0.0
 40
0.0693871918249065
 40
0.1365722429923053
 40
0.2009951935038453
 40
0.2639866122632247
 40
0.325003118553078
 40
0.3856722615036723
 40
0.4460875221452448
 40
0.50652186095595
 40
0.5663769299260877
 40
0.6255172601700717
 40
0.6843557689771044
 40
0.7437446481255309
 40
0.804489748855966
 40
0.8672346408614713
 40
0.9320698263584541
 40
1.0
 40
1.0
 40
1.0
 40
1.0
 10
41.85828251331726
 20
-88.3029054454036
 30
0.0
 10
41.74202543071171
 20
-88.30554213552234
 30
0.0
 10
41.51320091544316
 20
-88.31073183515026
 30
0.0
 10
41.17776862167813
 20
-88.34579543228674
 30
0.0
 10
40.85737018200263
 20
-88.40791685982734
 30
0.0
 10
40.55236607640446
 20
-88.49078395831852
 30
0.0
 10
40.26186982138669
 20
-88.59856324332097
 30
0.0
 10
39.98629929766432
 20
-88.73066917230207
 30
0.0
 10
39.72639239207612
 20
-88.8894871482101
 30
0.0
 10
39.4824638145546
 20
-89.06948685480309
 30
0.0
 10
39.25788353807103
 20
-89.2700520651296
 30
0.0
 10
39.05773167260741
 20
-89.49180680053044
 30
0.0
 10
38.88776198193646
 20
-89.73626174374724
 30
0.0
 10
38.73829970705433
 20
-89.99672934089224
 30
0.0
 10
38.61614652718619
 20
-90.27845987275822
 30
0.0
 10
38.52024570731943
 20
-90.57945273244245
 30
0.0
 10
38.44754942842848
 20
-90.89948510686072
 30
0.0
 10
38.42173235484724
 20
-91.12056027268761
 30
0.0
 10
38.40852289793265
 20
-91.23367467617283
 30
0.0
  0
LINE
  5
F0
330
1F
100
AcDbEntity
  8
0
  6
Continuous
 62
     7
370
    25
100
AcDbLine
 10
38.4085228979
 20
-91.2336746762
 30
0.0
 11
36.9431382825
 21
-91.2336746762
 31
0.0
  0
SPLINE
  5
F1
330
1F
100
AcDbEntity
  8
0
  6
Continuous
 62
     7
370
    25
100
AcDbSpline
210
0.0
220
0.0
230
1.0
 70
     8
 71
     3
 72
    23
 73
    19
 74
     0
 42
0.000000001
 43
0.00000001
 40
0.0
 40
0.0
 40
0.0
 40
0.0
 40
0.062459501970643
 40
0.122908837919722
 40
0.181678925233355
 40
0.2401525926561274
 40
0.2982536086166075
 40
0.3572605892586156
 40
0.4177149858893313
 40
0.4800980320137075
 40
0.5434871171908072
 40
0.6058936981674262
 40
0.6684706421132328
 40
0.7319378633808544
 40
0.7960381993776418
 40
0.8616927542954184
 40
0.929644407692738
 40
1.0
 40
1.0
 40
1.0
 40
1.0
 10
36.94313828254803
 20
-91.23367467617284
 30
0.0
 10
36.95179263969944
 20
-91.08238877703845
 30
0.0
 10
36.9688228264102
 20
-90.78468589005438
 30
0.0
 10
37.04925403600679
 20
-90.35043252528277
 30
0.0
 10
37.1721201656698
 20
-89.93683371999177
 30
0.0
 10
37.33747777696348
 20
-89.5441704400736
 30
0.0
 10
37.54659290865305
 20
-89.17264724733019
 30
0.0
 10
37.79291466232183
 20
-88.81850146023044
 30
0.0
 10
38.08909493711575
 20
-88.49072700090946
 30
0.0
 10
38.42095719162413
 20
-88.18381770514779
 30
0.0
 10
38.7844133504963
 20
-87.90708331609211
 30
0.0
 10
39.17078635841693
 20
-87.66238187270388
 30
0.0
 10
39.58061049605765
 20
-87.4588768723383
 30
0.0
 10
40.01042881098324
 20
-87.29068109408027
 30
0.0
 10
40.46121497840288
 20
-87.16110745162574
 30
0.0
 10
40.93154587272767
 20
-87.06661341885852
 30
0.0
 10
41.42353136798784
 20
-87.00964067383084
 30
0.0
 10
41.75891168265429
 20
-87.00347683139219
 30
0.0
 10
41.92951648767623
 20
-87.00034134283949
 30
0.0
  0
SPLINE
  5
F2
330
1F
100
AcDbEntity
  8
0
  6
Continuous
 62
     7
370
    25
100
AcDbSpline
210
0.0
220
0.0
230
1.0
 70
     8
 71
     3
 72
    23
 73
    19
 74
     0
 42
0.000000001
 43
0.00000001
 40
0.0
 40
0.0
 40
0.0
 40
0.0
 40
0.0755439683563413
 40
0.1480525798285259
 40
0.2172230472500457
 40
0.2845778397014364
 40
0.3497896569535847
 40
0.4140797655511756
 40
0.4775402308613235
 40
0.5412579114512508
 40
0.6038185100294691
 40
0.6635800461115807
 40
0.7211192641074533
 40
0.7772645163935684
 40
0.8323510444172668
 40
0.8875021962795349
 40
0.943104919354293
 40
1.0
 40
1.0
 40
1.0
 40
1.0
 10
41.92951648767623
 20
-87.00034134283949
 30
0.0
 10
42.09755961058373
 20
-87.00366838486295
 30
0.0
 10
42.42689388319623
 20
-87.01018878835106
 30
0.0
 10
42.90782045204527
 20
-87.06386563512476
 30
0.0
 10
43.36419895959421
 20
-87.1543013459946
 30
0.0
 10
43.79746965544275
 20
-87.2734188017103
 30
0.0
 10
44.20493557338823
 20
-87.4359556615203
 30
0.0
 10
44.58713612461415
 20
-87.63225563147303
 30
0.0
 10
44.9471243968779
 20
-87.86137995433455
 30
0.0
 10
45.27423224630242
 20
-88.12916273886725
 30
0.0
 10
45.57296352791894
 20
-88.41603435464576
 30
0.0
 10
45.83460789002832
 20
-88.71963252924785
 30
0.0
 10
46.05433461105391
 20
-89.03736195394796
 30
0.0
 10
46.23806271339149
 20
-89.36573545096905
 30
0.0
 10
46.374128061504
 20
-89.71071364469806
 30
0.0
 10
46.4786887250288
 20
-90.06505495239283
 30
0.0
 10
46.53725272762908
 20
-90.43459169548252
 30
0.0
 10
46.54541866549993
 20
-90.68481171607594
 30
0.0
 10
46.5495485389583
 20
-90.81135897104463
 30
0.0
  0
SPLINE
  5
F3
330
1F
100
AcDbEntity
  8
0
  6
Continuous
 62
     7
370
    25
100
AcDbSpline
210
0.0
220
0.0
230
1.0
 70
     8
 71
     3
 72
    23
 73
    19
 74
     0
 42
0.000000001
 43
0.00000001
 40
0.0
 40
0.0
 40
0.0
 40
0.0
 40
0.0471936987874529
 40
0.0941646026550241
 40
0.1407647004900439
 40
0.1876065867987881
 40
0.2347682166576786
 40
0.28206652241945
 40
0.3304755998546326
 40
0.3798501485218766
 40
0.4327989293930771
 40
0.4929901260461271
 40
0.5599282665518333
 40
0.6337073023934474
 40
0.7143972929783707
 40
0.8023698899558013
 40
0.897665503342573
 40
1.0
 40
1.0
 40
1.0
 40
1.0
 10
46.54954853895829
 20
-90.81135897104461
 30
0.0
 10
46.54734163908738
 20
-90.90045910930684
 30
0.0
 10
46.54293825781437
 20
-91.0782387564109
 30
0.0
 10
46.51519532107779
 20
-91.34296819914873
 30
0.0
 10
46.46528079139853
 20
-91.60348765884976
 30
0.0
 10
46.40128271408791
 20
-91.86149232690981
 30
0.0
 10
46.30958010547865
 20
-92.11236603692096
 30
0.0
 10
46.20589669373307
 20
-92.36150574310919
 30
0.0
 10
46.08106919804237
 20
-92.60572241242676
 30
0.0
 10
45.9324838371362
 20
-92.84867893156171
 30
0.0
 10
45.75779812454741
 20
-93.10114077894134
 30
0.0
 10
45.54859306918634
 20
-93.36934833897666
 30
0.0
 10
45.30380776773911
 20
-93.65923292401565
 30
0.0
 10
45.02322429867709
 20
-93.96920464233126
 30
0.0
 10
44.70742631545955
 20
-94.30067806881218
 30
0.0
 10
44.35239605026992
 20
-94.65050807223801
 30
0.0
 10
43.96421040156014
 20
-95.02484697949915
 30
0.0
 10
43.68969280399246
 20
-95.27761106502527
 30
0.0
 10
43.54754533383008
 20
-95.40849438771129
 30
0.0
  0
LINE
  5
F4
330
1F
100
AcDbEntity
  8
0
  6
Continuous
 62
     7
370
    25
100
AcDbLine
 10
43.5475453338
 20
-95.4084943877
 30
0.0
 11
39.8917160069
 21
-98.7234182659
 31
0.0
  0
LINE
  5
F5
330
1F
100
AcDbEntity
  8
0
  6
Continuous
 62
     7
370
    25
100
AcDbLine
 10
39.8917160069
 20
-98.7234182659
 30
0.0
 11
46.7123690518
 21
-98.7234182659
 31
0.0
  0
LINE
  5
F6
330
1F
100
AcDbEntity
  8
0
  6
Continuous
 62
     7
370
    25
100
AcDbLine
 10
46.7123690518
 20
-98.7234182659
 30
0.0
 11
46.7123690518
 21
-100.0259823685
 31
0.0
  0
LINE
  5
F7
330
1F
100
AcDbEntity
  8
0
  6
Continuous
 62
     7
370
    25
100
AcDbLine
 10
46.7123690518
 20
-100.0259823685
 30
0.0
 11
36.4546767441
 21
-100.0259823685
 31
0.0
  0
LINE
  5
F8
330
1F
100
AcDbEntity
  8
0
  6
Continuous
 62
     7
370
    25
100
AcDbLine
 10
36.4546767441
 20
-100.0259823685
 30
0.0
 11
42.2551575133
 21
-94.769932689
 31
0.0
  0
SPLINE
  5
F9
330
1F
100
AcDbEntity
  8
0
  6
Continuous
 62
     7
370
    25
100
AcDbSpline
210
0.0
220
0.0
230
1.0
 70
     8
 71
     3
 72
    19
 73
    15
 74
     0
 42
0.000000001
 43
0.00000001
 40
0.0
 40
0.0
 40
0.0
 40
0.0
 40
0.1140913523990297
 40
0.2190328984669196
 40
0.3144706496804023
 40
0.4011753789115322
 40
0.4788180200727831
 40
0.5470772481369833
 40
0.6067850671568066
 40
0.6576765714182378
 40
0.7476816539704868
 40
0.8336349133073472
 40
0.916625251321592
 40
1.0
 40
1.0
 40
1.0
 40
1.0
 10
42.25515751331726
 20
-94.76993268899334
 30
0.0
 10
42.39619700432814
 20
-94.64472758600503
 30
0.0
 10
42.66696501491641
 20
-94.40435847797251
 30
0.0
 10
43.05146507643779
 20
-94.05445481396961
 30
0.0
 10
43.39486695011141
 20
-93.7269183903266
 30
0.0
 10
43.70438985911276
 20
-93.42913877501407
 30
0.0
 10
43.96995177731306
 20
-93.15099922494056
 30
0.0
 10
44.20157031446145
 20
-92.9021778368775
 30
0.0
 10
44.39224782525257
 20
-92.67607874057848
 30
0.0
 10
44.59467092941055
 20
-92.41320774129579
 30
0.0
 10
44.78964528375567
 20
-92.0912476254972
 30
0.0
 10
44.96066362681695
 20
-91.69759416924083
 30
0.0
 10
45.06528748669436
 20
-91.29078694579788
 30
0.0
 10
45.07786209279679
 20
-91.01547756560352
 30
0.0
 10
45.08416392357368
 20
-90.87750480437796
 30
0.0
  0
ENDSEC
  0
SECTION
  2
OBJECTS
  0
DICTIONARY
  5
C
330
0
100
AcDbDictionary
281
     1
  3
ACAD_GROUP
350
D
  3
ACAD_LAYOUT
350
1A
  3
ACAD_MLINESTYLE
350
17
  3
ACAD_PLOTSETTINGS
350
19
  3
ACAD_PLOTSTYLENAME
350
E
  3
ACAD_SCALELIST
350
47
  0
DICTIONARY
  5
D
102
{ACAD_REACTORS
330
C
102
}
330
C
100
AcDbDictionary
281
     1
  0
DICTIONARY
  5
1A
102
{ACAD_REACTORS
330
C
102
}
330
C
100
AcDbDictionary
281
     1
  3
Layout1
350
1E
  3
Layout2
350
26
  3
Model
350
22
  0
DICTIONARY
  5
17
102
{ACAD_REACTORS
330
C
102
}
330
C
100
AcDbDictionary
281
     1
  3
Standard
350
18
  0
DICTIONARY
  5
19
102
{ACAD_REACTORS
330
C
102
}
330
C
100
AcDbDictionary
281
     1
  0
ACDBDICTIONARYWDFLT
  5
E
102
{ACAD_REACTORS
330
C
102
}
330
C
100
AcDbDictionary
281
     1
  3
Normal
350
F
100
AcDbDictionaryWithDefault
340
F
  0
DICTIONARY
  5
47
102
{ACAD_REACTORS
330
C
102
}
330
C
100
AcDbDictionary
281
     1
  3
A0
350
48
  3
A1
350
49
  3
A2
350
4A
  3
A3
350
4B
  3
A4
350
4C
  3
A5
350
4D
  3
A6
350
4E
  3
A7
350
4F
  3
A8
350
50
  3
A9
350
51
  3
B0
350
52
  3
B1
350
53
  3
B2
350
54
  3
B3
350
55
  3
B4
350
56
  3
B5
350
57
  3
B6
350
58
  3
B7
350
59
  3
B8
350
5A
  3
B9
350
5B
  3
C0
350
5C
  3
C1
350
5D
  3
C2
350
5E
  3
C3
350
5F
  3
C4
350
60
  3
C5
350
61
  3
C6
350
62
  3
C7
350
63
  3
C8
350
64
  3
C9
350
65
  3
D0
350
66
  3
D1
350
67
  3
D2
350
68
  0
LAYOUT
  5
1E
102
{ACAD_REACTORS
330
1A
102
}
330
1A
100
AcDbPlotSettings
  1

  2
none_device
  4

  6

 40
0.0
 41
0.0
 42
0.0
 43
0.0
 44
0.0
 45
0.0
 46
0.0
 47
0.0
 48
0.0
 49
0.0
140
0.0
141
0.0
142
1.0
143
1.0
 70
   688
 72
     1
 73
     0
 74
     5
  7

 75
    16
147
1.0
148
0.0
149
0.0
100
AcDbLayout
  1
Layout1
 70
     1
 71
     1
 10
0.0
 20
0.0
 11
420.0
 21
297.0
 12
0.0
 22
0.0
 32
0.0
 14
1.0000000000E+20
 24
1.0000000000E+20
 34
1.0000000000E+20
 15
-1.0000000000E+20
 25
-1.0000000000E+20
 35
-1.0000000000E+20
146
0.0
 13
0.0
 23
0.0
 33
0.0
 16
1.0
 26
0.0
 36
0.0
 17
0.0
 27
1.0
 37
0.0
 76
     0
330
1B
  0
LAYOUT
  5
26
102
{ACAD_REACTORS
330
1A
102
}
330
1A
100
AcDbPlotSettings
  1

  2
none_device
  4

  6

 40
0.0
 41
0.0
 42
0.0
 43
0.0
 44
0.0
 45
0.0
 46
0.0
 47
0.0
 48
0.0
 49
0.0
140
0.0
141
0.0
142
1.0
143
1.0
 70
   688
 72
     1
 73
     0
 74
     5
  7

 75
    16
147
1.0
148
0.0
149
0.0
100
AcDbLayout
  1
Layout2
 70
     1
 71
     2
 10
0.0
 20
0.0
 11
0.0
 21
0.0
 12
0.0
 22
0.0
 32
0.0
 14
0.0
 24
0.0
 34
0.0
 15
0.0
 25
0.0
 35
0.0
146
0.0
 13
0.0
 23
0.0
 33
0.0
 16
1.0
 26
0.0
 36
0.0
 17
0.0
 27
1.0
 37
0.0
 76
     0
330
23
  0
LAYOUT
  5
22
102
{ACAD_REACTORS
330
1A
102
}
330
1A
100
AcDbPlotSettings
  1

  2
none_device
  4
ANSI_A_(11.00_x_8.50_Inches)
  6

 40
6.35
 41
19.05
 42
6.35000508
 43
19.05000254
 44
279.4
 45
215.9
 46
133.34999746
 47
124.52349873
 48
0.0
 49
0.0
140
0.0
141
0.0
142
0.04675
143
1.0
 70
  1696
 72
     0
 73
     0
 74
     0
  7

 75
     0
147
0.0179189148
148
-1300.4909072572
149
0.0
100
AcDbLayout
  1
Model
 70
     1
 71
     0
 10
0.0
 20
0.0
 11
420.0
 21
297.0
 12
0.0
 22
0.0
 32
0.0
 14
-100.0
 24
-120.0
 34
0.0
 15
100.0
 25
60.0
 35
0.0
146
0.0
 13
0.0
 23
0.0
 33
0.0
 16
1.0
 26
0.0
 36
0.0
 17
0.0
 27
1.0
 37
0.0
 76
     0
330
1F
331
29
  0
MLINESTYLE
  5
18
102
{ACAD_REACTORS
330
17
102
}
330
17
100
AcDbMlineStyle
  2
Standard
 70
     0
  3

 62
   256
 51
90.0
 52
90.0
 71
     2
 49
0.5
 62
   256
  6
BYLAYER
 49
-0.5
 62
   256
  6
BYLAYER
  0
ACDBPLACEHOLDER
  5
F
102
{ACAD_REACTORS
330
E
102
}
330
E
  0
SCALE
  5
48
102
{ACAD_REACTORS
330
47
102
}
330
47
100
AcDbScale
 70
     0
300
1:1
140
1.0
141
1.0
290
     1
  0
SCALE
  5
49
102
{ACAD_REACTORS
330
47
102
}
330
47
100
AcDbScale
 70
     0
300
1:2
140
1.0
141
2.0
290
     0
  0
SCALE
  5
4A
102
{ACAD_REACTORS
330
47
102
}
330
47
100
AcDbScale
 70
     0
300
1:4
140
1.0
141
4.0
290
     0
  0
SCALE
  5
4B
102
{ACAD_REACTORS
330
47
102
}
330
47
100
AcDbScale
 70
     0
300
1:5
140
1.0
141
5.0
290
     0
  0
SCALE
  5
4C
102
{ACAD_REACTORS
330
47
102
}
330
47
100
AcDbScale
 70
     0
300
1:8
140
1.0
141
8.0
290
     0
  0
SCALE
  5
4D
102
{ACAD_REACTORS
330
47
102
}
330
47
100
AcDbScale
 70
     0
300
1:10
140
1.0
141
10.0
290
     0
  0
SCALE
  5
4E
102
{ACAD_REACTORS
330
47
102
}
330
47
100
AcDbScale
 70
     0
300
1:16
140
1.0
141
16.0
290
     0
  0
SCALE
  5
4F
102
{ACAD_REACTORS
330
47
102
}
330
47
100
AcDbScale
 70
     0
300
1:20
140
1.0
141
20.0
290
     0
  0
SCALE
  5
50
102
{ACAD_REACTORS
330
47
102
}
330
47
100
AcDbScale
 70
     0
300
1:30
140
1.0
141
30.0
290
     0
  0
SCALE
  5
51
102
{ACAD_REACTORS
330
47
102
}
330
47
100
AcDbScale
 70
     0
300
1:40
140
1.0
141
40.0
290
     0
  0
SCALE
  5
52
102
{ACAD_REACTORS
330
47
102
}
330
47
100
AcDbScale
 70
     0
300
1:50
140
1.0
141
50.0
290
     0
  0
SCALE
  5
53
102
{ACAD_REACTORS
330
47
102
}
330
47
100
AcDbScale
 70
     0
300
1:100
140
1.0
141
100.0
290
     0
  0
SCALE
  5
54
102
{ACAD_REACTORS
330
47
102
}
330
47
100
AcDbScale
 70
     0
300
2:1
140
2.0
141
1.0
290
     0
  0
SCALE
  5
55
102
{ACAD_REACTORS
330
47
102
}
330
47
100
AcDbScale
 70
     0
300
4:1
140
4.0
141
1.0
290
     0
  0
SCALE
  5
56
102
{ACAD_REACTORS
330
47
102
}
330
47
100
AcDbScale
 70
     0
300
8:1
140
8.0
141
1.0
290
     0
  0
SCALE
  5
57
102
{ACAD_REACTORS
330
47
102
}
330
47
100
AcDbScale
 70
     0
300
10:1
140
10.0
141
1.0
290
     0
  0
SCALE
  5
58
102
{ACAD_REACTORS
330
47
102
}
330
47
100
AcDbScale
 70
     0
300
100:1
140
100.0
141
1.0
290
     0
  0
SCALE
  5
59
102
{ACAD_REACTORS
330
47
102
}
330
47
100
AcDbScale
 70
     0
300
1/128" = 1'-0"
140
0.0078125
141
12.0
290
     0
  0
SCALE
  5
5A
102
{ACAD_REACTORS
330
47
102
}
330
47
100
AcDbScale
 70
     0
300
1/64" = 1'-0"
140
0.015625
141
12.0
290
     0
  0
SCALE
  5
5B
102
{ACAD_REACTORS
330
47
102
}
330
47
100
AcDbScale
 70
     0
300
1/32" = 1'-0"
140
0.03125
141
12.0
290
     0
  0
SCALE
  5
5C
102
{ACAD_REACTORS
330
47
102
}
330
47
100
AcDbScale
 70
     0
300
1/16" = 1'-0"
140
0.0625
141
12.0
290
     0
  0
SCALE
  5
5D
102
{ACAD_REACTORS
330
47
102
}
330
47
100
AcDbScale
 70
     0
300
3/32" = 1'-0"
140
0.09375
141
12.0
290
     0
  0
SCALE
  5
5E
102
{ACAD_REACTORS
330
47
102
}
330
47
100
AcDbScale
 70
     0
300
1/8" = 1'-0"
140
0.125
141
12.0
290
     0
  0
SCALE
  5
5F
102
{ACAD_REACTORS
330
47
102
}
330
47
100
AcDbScale
 70
     0
300
3/16" = 1'-0"
140
0.1875
141
12.0
290
     0
  0
SCALE
  5
60
102
{ACAD_REACTORS
330
47
102
}
330
47
100
AcDbScale
 70
     0
300
1/4" = 1'-0"
140
0.25
141
12.0
290
     0
  0
SCALE
  5
61
102
{ACAD_REACTORS
330
47
102
}
330
47
100
AcDbScale
 70
     0
300
3/8" = 1'-0"
140
0.375
141
12.0
290
     0
  0
SCALE
  5
62
102
{ACAD_REACTORS
330
47
102
}
330
47
100
AcDbScale
 70
     0
300
1/2" = 1'-0"
140
0.5
141
12.0
290
     0
  0
SCALE
  5
63
102
{ACAD_REACTORS
330
47
102
}
330
47
100
AcDbScale
 70
     0
300
3/4" = 1'-0"
140
0.75
141
12.0
290
     0
  0
SCALE
  5
64
102
{ACAD_REACTORS
330
47
102
}
330
47
100
AcDbScale
 70
     0
300
1" = 1'-0"
140
1.0
141
12.0
290
     0
  0
SCALE
  5
65
102
{ACAD_REACTORS
330
47
102
}
330
47
100
AcDbScale
 70
     0
300
1-1/2" = 1'-0"
140
1.5
141
12.0
290
     0
  0
SCALE
  5
66
102
{ACAD_REACTORS
330
47
102
}
330
47
100
AcDbScale
 70
     0
300
3" = 1'-0"
140
3.0
141
12.0
290
     0
  0
SCALE
  5
67
102
{ACAD_REACTORS
330
47
102
}
330
47
100
AcDbScale
 70
     0
300
6" = 1'-0"
140
6.0
141
12.0
290
     0
  0
SCALE
  5
68
102
{ACAD_REACTORS
330
47
102
}
330
47
100
AcDbScale
 70
     0
300
1'-0" = 1'-0"
140
12.0
141
12.0
290
     0
  0
ENDSEC
  0
EOF
